<svg xmlns="http://www.w3.org/2000/svg" xmlns:xlink="http://www.w3.org/1999/xlink" id="exportSvg" width="496" height="1351"><defs/><rect width="496" height="1351" transform="translate(0, 0)" fill="rgb(50, 61, 77)" style="fill: rgb(50, 61, 77);"/><g><g><g id="__svelte-dw-svg" clip-path="url(#rect-mask-6OoLuwZ2UVC3eCPuyUhYB)"><clipPath id="rect-mask-6OoLuwZ2UVC3eCPuyUhYB"><rect x="0" y="0" width="496" height="1351"/></clipPath><g id="container-svg container-body-svg datawrapper-ps8J7-1lyv3s0-svg"><rect width="496" height="1351" transform="translate(0, 0)" fill="rgb(50,61,77)" style="fill: rgb(50, 61, 77);"/><g id="container-svg container-bodyTop-svg datawrapper-ps8J7-lmtz6e-svg"><g id="container-svg container-bodyCenter-svg datawrapper-ps8J7-1fgvipr-svg"><g id="container-svg container-header-svg datawrapper-ps8J7-xp3kt5-svg"><text transform="translate(12, 12)"><tspan fill="rgb(255,255,255)" x="0" y="22" style="font-family: Roboto; font-weight: 700; font-stretch: 100%; font-size: 22px;">The Global Reach of Hindu Nationalism</tspan></text><text transform="translate(12, 47)"><tspan fill="rgb(255,255,255)" x="0" y="14" style="font-family: Roboto; font-weight: 400; font-stretch: 100%; font-size: 14px;">The United States hosts the largest number of Hindu nationalist affiliated</tspan><tspan fill="rgb(255,255,255)" x="0" y="31" style="font-family: Roboto; font-weight: 400; font-stretch: 100%; font-size: 14px;">organizations</tspan></text></g><g id="chart-svg"><text transform="translate(13, 97.296875)"><tspan fill="rgb(255,255,255)" x="20.184375" y="12" style="font-family: Roboto; font-weight: 400; font-stretch: 100%; font-size: 12px;">United States</tspan></text><g id="image"><svg xmlns="http://www.w3.org/2000/svg" id="flag-icons-us" viewBox="0 0 640 480" width="16" height="12" x="13" y="97">
  <path fill="#bd3d44" d="M0 0h640v480H0"/>
  <path stroke="#fff" stroke-width="37" d="M0 55.3h640M0 129h640M0 203h640M0 277h640M0 351h640M0 425h640"/>
  <path fill="#192f5d" d="M0 0h364.8v258.5H0"/>
  <marker id="us-a" markerHeight="30" markerWidth="30">
    <path fill="#fff" d="m14 0 9 27L0 10h28L5 27z"/>
  </marker>
  <path fill="none" marker-mid="url(#us-a)" d="m0 0 16 11h61 61 61 61 60L47 37h61 61 60 61L16 63h61 61 61 61 60L47 89h61 61 60 61L16 115h61 61 61 61 60L47 141h61 61 60 61L16 166h61 61 61 61 60L47 192h61 61 60 61L16 218h61 61 61 61 60z"/>
</svg></g><rect width="305.890625" height="27" transform="translate(151.5625, 91)" fill="rgb(255,160,37)" style="fill: rgb(255, 160, 37);"/><text transform="translate(462.453125, 97)"><tspan fill="rgb(255,255,255)" x="0" y="12" style="font-family: Roboto; font-weight: 700; font-stretch: 100%; font-size: 12px;">108</tspan></text><text transform="translate(13, 128.296875)"><tspan fill="rgb(255,255,255)" x="20.184375" y="12" style="font-family: Roboto; font-weight: 400; font-stretch: 100%; font-size: 12px;">Australia</tspan></text><g id="image"><svg xmlns="http://www.w3.org/2000/svg" id="flag-icons-au" viewBox="0 0 640 480" width="16" height="12" x="13" y="128">
  <path fill="#00008B" d="M0 0h640v480H0z"/>
  <path fill="#fff" d="m37.5 0 122 90.5L281 0h39v31l-120 89.5 120 89V240h-40l-120-89.5L40.5 240H0v-30l119.5-89L0 32V0z"/>
  <path fill="red" d="M212 140.5 320 220v20l-135.5-99.5zm-92 10 3 17.5-96 72H0zM320 0v1.5l-124.5 94 1-22L295 0zM0 0l119.5 88h-30L0 21z"/>
  <path fill="#fff" d="M120.5 0v240h80V0zM0 80v80h320V80z"/>
  <path fill="red" d="M0 96.5v48h320v-48zM136.5 0v240h48V0z"/>
  <path fill="#fff" d="m527 396.7-20.5 2.6 2.2 20.5-14.8-14.4-14.7 14.5 2-20.5-20.5-2.4 17.3-11.2-10.9-17.5 19.6 6.5 6.9-19.5 7.1 19.4 19.5-6.7-10.7 17.6zm-3.7-117.2 2.7-13-9.8-9 13.2-1.5 5.5-12.1 5.5 12.1 13.2 1.5-9.8 9 2.7 13-11.6-6.6zm-104.1-60-20.3 2.2 1.8 20.3-14.4-14.5-14.8 14.1 2.4-20.3-20.2-2.7 17.3-10.8-10.5-17.5 19.3 6.8L387 178l6.7 19.3 19.4-6.3-10.9 17.3 17.1 11.2ZM623 186.7l-20.9 2.7 2.3 20.9-15.1-14.7-15 14.8 2.1-21-20.9-2.4 17.7-11.5-11.1-17.9 20 6.7 7-19.8 7.2 19.8 19.9-6.9-11 18zm-96.1-83.5-20.7 2.3 1.9 20.8-14.7-14.8-15.1 14.4 2.4-20.7-20.7-2.8 17.7-11L467 73.5l19.7 6.9 7.3-19.5 6.8 19.7 19.8-6.5-11.1 17.6zM234 385.7l-45.8 5.4 4.6 45.9-32.8-32.4-33 32.2 4.9-45.9-45.8-5.8 38.9-24.8-24-39.4 43.6 15 15.8-43.4 15.5 43.5 43.7-14.7-24.3 39.2 38.8 25.1Z"/>
</svg></g><rect width="99.140625" height="27" transform="translate(151.5625, 122)" fill="rgb(255,160,37)" style="fill: rgb(255, 160, 37);"/><text transform="translate(255.703125, 128)"><tspan fill="rgb(255,255,255)" x="0" y="12" style="font-family: Roboto; font-weight: 700; font-stretch: 100%; font-size: 12px;">35</tspan></text><text transform="translate(13, 159.296875)"><tspan fill="rgb(255,255,255)" x="20.184375" y="12" style="font-family: Roboto; font-weight: 400; font-stretch: 100%; font-size: 12px;">United Kingdom</tspan></text><g id="image"><svg xmlns="http://www.w3.org/2000/svg" id="flag-icons-gb" viewBox="0 0 640 480" width="16" height="12" x="13" y="159">
  <path fill="#012169" d="M0 0h640v480H0z"/>
  <path fill="#FFF" d="m75 0 244 181L562 0h78v62L400 241l240 178v61h-80L320 301 81 480H0v-60l239-178L0 64V0z"/>
  <path fill="#C8102E" d="m424 281 216 159v40L369 281zm-184 20 6 35L54 480H0zM640 0v3L391 191l2-44L590 0zM0 0l239 176h-60L0 42z"/>
  <path fill="#FFF" d="M241 0v480h160V0zM0 160v160h640V160z"/>
  <path fill="#C8102E" d="M0 193v96h640v-96zM273 0v480h96V0z"/>
</svg></g><rect width="76.484375" height="27" transform="translate(151.5625, 153)" fill="rgb(255,160,37)" style="fill: rgb(255, 160, 37);"/><text transform="translate(233.046875, 159)"><tspan fill="rgb(255,255,255)" x="0" y="12" style="font-family: Roboto; font-weight: 700; font-stretch: 100%; font-size: 12px;">27</tspan></text><text transform="translate(13, 190.296875)"><tspan fill="rgb(255,255,255)" x="20.184375" y="12" style="font-family: Roboto; font-weight: 400; font-stretch: 100%; font-size: 12px;">Canada</tspan></text><g id="image"><svg xmlns="http://www.w3.org/2000/svg" id="flag-icons-ca" viewBox="0 0 640 480" width="16" height="12" x="13" y="190">
  <path fill="#fff" d="M150.1 0h339.7v480H150z"/>
  <path fill="#d52b1e" d="M-19.7 0h169.8v480H-19.7zm509.5 0h169.8v480H489.9zM201 232l-13.3 4.4 61.4 54c4.7 13.7-1.6 17.8-5.6 25l66.6-8.4-1.6 67 13.9-.3-3.1-66.6 66.7 8c-4.1-8.7-7.8-13.3-4-27.2l61.3-51-10.7-4c-8.8-6.8 3.8-32.6 5.6-48.9 0 0-35.7 12.3-38 5.8l-9.2-17.5-32.6 35.8c-3.5.9-5-.5-5.9-3.5l15-74.8-23.8 13.4q-3.2 1.3-5.2-2.2l-23-46-23.6 47.8q-2.8 2.5-5 .7L264 130.8l13.7 74.1c-1.1 3-3.7 3.8-6.7 2.2l-31.2-35.3c-4 6.5-6.8 17.1-12.2 19.5s-23.5-4.5-35.6-7c4.2 14.8 17 39.6 9 47.7"/>
</svg></g><rect width="36.828125" height="27" transform="translate(151.5625, 184)" fill="rgb(255,160,37)" style="fill: rgb(255, 160, 37);"/><text transform="translate(193.390625, 190)"><tspan fill="rgb(255,255,255)" x="0" y="12" style="font-family: Roboto; font-weight: 700; font-stretch: 100%; font-size: 12px;">13</tspan></text><text transform="translate(13, 221.296875)"><tspan fill="rgb(255,255,255)" x="20.184375" y="12" style="font-family: Roboto; font-weight: 400; font-stretch: 100%; font-size: 12px;">New Zealand</tspan></text><g id="image"><svg xmlns="http://www.w3.org/2000/svg" xmlns:xlink="http://www.w3.org/1999/xlink" id="flag-icons-nz" viewBox="0 0 640 480" width="16" height="12" x="13" y="221">
  <defs>
    <g id="nz-b">
      <g id="nz-a">
        <path d="M0-.3v.5l1-.5z"/>
        <path d="M.2.3 0-.1l1-.2z"/>
      </g>
      <use xlink:href="#nz-a" transform="scale(-1 1)"/>
      <use xlink:href="#nz-a" transform="rotate(72 0 0)"/>
      <use xlink:href="#nz-a" transform="rotate(-72 0 0)"/>
      <use xlink:href="#nz-a" transform="scale(-1 1)rotate(72)"/>
    </g>
  </defs>
  <path fill="#00247d" fill-rule="evenodd" d="M0 0h640v480H0z"/>
  <g transform="translate(-111 36.1)scale(.66825)">
    <use xlink:href="#nz-b" width="100%" height="100%" fill="#fff" transform="translate(900 120)scale(45.4)"/>
    <use xlink:href="#nz-b" width="100%" height="100%" fill="#cc142b" transform="matrix(30 0 0 30 900 120)"/>
  </g>
  <g transform="rotate(82 525.2 114.6)scale(.66825)">
    <use xlink:href="#nz-b" width="100%" height="100%" fill="#fff" transform="rotate(-82 519 -457.7)scale(40.4)"/>
    <use xlink:href="#nz-b" width="100%" height="100%" fill="#cc142b" transform="rotate(-82 519 -457.7)scale(25)"/>
  </g>
  <g transform="rotate(82 525.2 114.6)scale(.66825)">
    <use xlink:href="#nz-b" width="100%" height="100%" fill="#fff" transform="rotate(-82 668.6 -327.7)scale(45.4)"/>
    <use xlink:href="#nz-b" width="100%" height="100%" fill="#cc142b" transform="rotate(-82 668.6 -327.7)scale(30)"/>
  </g>
  <g transform="translate(-111 36.1)scale(.66825)">
    <use xlink:href="#nz-b" width="100%" height="100%" fill="#fff" transform="translate(900 480)scale(50.4)"/>
    <use xlink:href="#nz-b" width="100%" height="100%" fill="#cc142b" transform="matrix(35 0 0 35 900 480)"/>
  </g>
  <path fill="#012169" d="M0 0h320v240H0z"/>
  <path fill="#fff" d="m37.5 0 122 90.5L281 0h39v31l-120 89.5 120 89V240h-40l-120-89.5L40.5 240H0v-30l119.5-89L0 32V0z"/>
  <path fill="#c8102e" d="M212 140.5 320 220v20l-135.5-99.5zm-92 10 3 17.5-96 72H0zM320 0v1.5l-124.5 94 1-22L295 0zM0 0l119.5 88h-30L0 21z"/>
  <path fill="#fff" d="M120.5 0v240h80V0zM0 80v80h320V80z"/>
  <path fill="#c8102e" d="M0 96.5v48h320v-48zM136.5 0v240h48V0z"/>
</svg></g><rect width="17" height="27" transform="translate(151.5625, 215)" fill="rgb(255,160,37)" style="fill: rgb(255, 160, 37);"/><text transform="translate(173.5625, 221)"><tspan fill="rgb(255,255,255)" x="0" y="12" style="font-family: Roboto; font-weight: 700; font-stretch: 100%; font-size: 12px;">6</tspan></text><text transform="translate(13, 252.296875)"><tspan fill="rgb(255,255,255)" x="19.95" y="12" style="font-family: Roboto; font-weight: 400; font-stretch: 100%; font-size: 12px;">Thailand</tspan></text><g id="image"><svg xmlns="http://www.w3.org/2000/svg" id="flag-icons-th" viewBox="0 0 640 480" width="16" height="12" x="13" y="252">
  <g fill-rule="evenodd">
    <path fill="#f4f5f8" d="M0 0h640v480H0z"/>
    <path fill="#2d2a4a" d="M0 162.5h640v160H0z"/>
    <path fill="#a51931" d="M0 0h640v82.5H0zm0 400h640v80H0z"/>
  </g>
</svg></g><rect width="17" height="27" transform="translate(151.5625, 246)" fill="rgb(255,160,37)" style="fill: rgb(255, 160, 37);"/><text transform="translate(173.5625, 252)"><tspan fill="rgb(255,255,255)" x="0" y="12" style="font-family: Roboto; font-weight: 700; font-stretch: 100%; font-size: 12px;">6</tspan></text><text transform="translate(13, 283.296875)"><tspan fill="rgb(255,255,255)" x="20.184375" y="12" style="font-family: Roboto; font-weight: 400; font-stretch: 100%; font-size: 12px;">Mauritius</tspan></text><g id="image"><svg xmlns="http://www.w3.org/2000/svg" id="flag-icons-mu" viewBox="0 0 640 480" width="16" height="12" x="13" y="283">
  <g fill-rule="evenodd">
    <path fill="#00a04d" d="M0 360h640v120H0z"/>
    <path fill="#151f6d" d="M0 120h640v120H0z"/>
    <path fill="#ee2737" d="M0 0h640v120H0z"/>
    <path fill="#ffcd00" d="M0 240h640v120H0z"/>
  </g>
</svg></g><rect width="17" height="27" transform="translate(151.5625, 277)" fill="rgb(255,160,37)" style="fill: rgb(255, 160, 37);"/><text transform="translate(173.5625, 283)"><tspan fill="rgb(255,255,255)" x="0" y="12" style="font-family: Roboto; font-weight: 700; font-stretch: 100%; font-size: 12px;">6</tspan></text><text transform="translate(13, 314.296875)"><tspan fill="rgb(255,255,255)" x="20.184375" y="12" style="font-family: Roboto; font-weight: 400; font-stretch: 100%; font-size: 12px;">Kenya</tspan></text><g id="image"><svg xmlns="http://www.w3.org/2000/svg" xmlns:xlink="http://www.w3.org/1999/xlink" id="flag-icons-ke" viewBox="0 0 640 480" width="16" height="12" x="13" y="314">
  <defs>
    <path id="ke-a" stroke-miterlimit="10" d="m-28.6 47.5 1.8 1 46.7-81c2.7-.6 4.2-3.2 5.7-5.8 1-1.8 5-8.7 6.7-17.7a58 58 0 0 0-11.9 14.7c-1.5 2.6-3 5.2-2.3 7.9z"/>
  </defs>
  <path fill="#fff" d="M0 0h640v480H0z"/>
  <path fill="#000001" d="M0 0h640v144H0z"/>
  <path fill="#060" d="M0 336h640v144H0z"/>
  <g id="ke-b" transform="matrix(3 0 0 3 320 240)">
    <use xlink:href="#ke-a" width="100%" height="100%" stroke="#000"/>
    <use xlink:href="#ke-a" width="100%" height="100%" fill="#fff"/>
  </g>
  <use xlink:href="#ke-b" width="100%" height="100%" transform="matrix(-1 0 0 1 640 0)"/>
  <path fill="#b00" d="M640.5 168H377c-9-24-39-72-57-72s-48 48-57 72H-.2v144H263c9 24 39 72 57 72s48-48 57-72h263.5z"/>
  <path id="ke-c" d="M377 312c9-24 15-48 15-72s-6-48-15-72c-9 24-15 48-15 72s6 48 15 72"/>
  <use xlink:href="#ke-c" width="100%" height="100%" transform="matrix(-1 0 0 1 640 0)"/>
  <g fill="#fff" transform="matrix(3 0 0 3 320 240)">
    <ellipse rx="4" ry="6"/>
    <path id="ke-d" d="M1 5.8s4 8 4 21-4 21-4 21z"/>
    <use xlink:href="#ke-d" width="100%" height="100%" transform="scale(-1)"/>
    <use xlink:href="#ke-d" width="100%" height="100%" transform="scale(-1 1)"/>
    <use xlink:href="#ke-d" width="100%" height="100%" transform="scale(1 -1)"/>
  </g>
</svg></g><rect width="14.171875" height="27" transform="translate(151.5625, 308)" fill="rgb(255,160,37)" style="fill: rgb(255, 160, 37);"/><text transform="translate(170.734375, 314)"><tspan fill="rgb(255,255,255)" x="0" y="12" style="font-family: Roboto; font-weight: 700; font-stretch: 100%; font-size: 12px;">5</tspan></text><text transform="translate(13, 345.296875)"><tspan fill="rgb(255,255,255)" x="20.184375" y="12" style="font-family: Roboto; font-weight: 400; font-stretch: 100%; font-size: 12px;">Malaysia</tspan></text><g id="image"><svg xmlns="http://www.w3.org/2000/svg" id="flag-icons-my" viewBox="0 0 640 480" width="16" height="12" x="13" y="345">
  <g clip-path="url(#my-a)">
    <path fill="#C00" d="M0 0h640v480H0z"/>
    <path fill="#C00" d="M0 0h640v34.3H0z"/>
    <path fill="#fff" d="M0 34.3h640v34.3H0z"/>
    <path fill="#C00" d="M0 68.6h640v34.3H0z"/>
    <path fill="#fff" d="M0 102.9h640V137H0z"/>
    <path fill="#C00" d="M0 137.1h640v34.3H0z"/>
    <path fill="#fff" d="M0 171.4h640v34.3H0z"/>
    <path fill="#C00" d="M0 205.7h640V240H0z"/>
    <path fill="#fff" d="M0 240h640v34.3H0z"/>
    <path fill="#C00" d="M0 274.3h640v34.3H0z"/>
    <path fill="#fff" d="M0 308.6h640v34.3H0z"/>
    <path fill="#C00" d="M0 342.9h640V377H0z"/>
    <path fill="#fff" d="M0 377.1h640v34.3H0z"/>
    <path fill="#C00" d="M0 411.4h640v34.3H0z"/>
    <path fill="#fff" d="M0 445.7h640V480H0z"/>
    <path fill="#006" d="M0 .5h320v274.3H0z"/>
    <path fill="#FC0" d="m207.5 73.8 6 40.7 23-34-12.4 39.2 35.5-20.8-28.1 30 41-3.2-38.3 14.8 38.3 14.8-41-3.2 28.1 30-35.5-20.8 12.3 39.3-23-34.1-6 40.7-5.9-40.7-23 34 12.4-39.2-35.5 20.8 28-30-41 3.2 38.4-14.8-38.3-14.8 41 3.2-28.1-30 35.5 20.8-12.4-39.3 23 34.1zm-33.3 1.7a71 71 0 0 0-100 65 71 71 0 0 0 100 65 80 80 0 0 1-83.2 6.2 80 80 0 0 1-43.4-71.2 80 80 0 0 1 126.6-65"/>
  </g>
  <defs>
    <clipPath id="my-a">
      <path fill="#fff" d="M0 0h640v480H0z"/>
    </clipPath>
  </defs>
</svg></g><rect width="14.171875" height="27" transform="translate(151.5625, 339)" fill="rgb(255,160,37)" style="fill: rgb(255, 160, 37);"/><text transform="translate(170.734375, 345)"><tspan fill="rgb(255,255,255)" x="0" y="12" style="font-family: Roboto; font-weight: 700; font-stretch: 100%; font-size: 12px;">5</tspan></text><text transform="translate(13, 376.296875)"><tspan fill="rgb(255,255,255)" x="20.184375" y="12" style="font-family: Roboto; font-weight: 400; font-stretch: 100%; font-size: 12px;">Myanmar</tspan></text><g id="image"><svg xmlns="http://www.w3.org/2000/svg" xmlns:xlink="http://www.w3.org/1999/xlink" id="flag-icons-mm" viewBox="0 0 640 480" width="16" height="12" x="13" y="376">
  <path fill="#fecb00" d="M0 0h640v480H0z"/>
  <path fill="#34b233" d="M0 160h640v320H0z"/>
  <path fill="#ea2839" d="M0 320h640v160H0z"/>
  <g transform="translate(320 256.9)scale(176.87999)">
    <path id="mm-a" fill="#fff" d="m0-1 .3 1h-.6z"/>
    <use xlink:href="#mm-a" width="100%" height="100%" transform="rotate(-144)"/>
    <use xlink:href="#mm-a" width="100%" height="100%" transform="rotate(-72)"/>
    <use xlink:href="#mm-a" width="100%" height="100%" transform="rotate(72)"/>
    <use xlink:href="#mm-a" width="100%" height="100%" transform="rotate(144)"/>
  </g>
</svg></g><rect width="11.34375" height="27" transform="translate(151.5625, 370)" fill="rgb(255,160,37)" style="fill: rgb(255, 160, 37);"/><text transform="translate(167.90625, 376)"><tspan fill="rgb(255,255,255)" x="0" y="12" style="font-family: Roboto; font-weight: 700; font-stretch: 100%; font-size: 12px;">4</tspan></text><text transform="translate(13, 407.296875)"><tspan fill="rgb(255,255,255)" x="20.184375" y="12" style="font-family: Roboto; font-weight: 400; font-stretch: 100%; font-size: 12px;">Netherlands</tspan></text><g id="image"><svg xmlns="http://www.w3.org/2000/svg" id="flag-icons-nl" viewBox="0 0 640 480" width="16" height="12" x="13" y="407">
  <path fill="#ae1c28" d="M0 0h640v160H0z"/>
  <path fill="#fff" d="M0 160h640v160H0z"/>
  <path fill="#21468b" d="M0 320h640v160H0z"/>
</svg></g><rect width="11.34375" height="27" transform="translate(151.5625, 401)" fill="rgb(255,160,37)" style="fill: rgb(255, 160, 37);"/><text transform="translate(167.90625, 407)"><tspan fill="rgb(255,255,255)" x="0" y="12" style="font-family: Roboto; font-weight: 700; font-stretch: 100%; font-size: 12px;">4</tspan></text><text transform="translate(13, 438.296875)"><tspan fill="rgb(255,255,255)" x="20.184375" y="12" style="font-family: Roboto; font-weight: 400; font-stretch: 100%; font-size: 12px;">Guyana</tspan></text><g id="image"><svg xmlns="http://www.w3.org/2000/svg" id="flag-icons-gy" viewBox="0 0 640 480" width="16" height="12" x="13" y="438">
  <g fill-rule="evenodd">
    <path fill="#399408" d="M2.4 0H640v480H2.4z"/>
    <path fill="#fff" d="M.2 0c-.9 0 619.6 241.5 619.6 241.5L0 479.8z"/>
    <path fill="#ffde08" d="M.3 20.2c3.4 0 559 217.9 555.9 220L1.9 463.2.3 20.3z"/>
    <path fill="#000001" d="M1.9.8c1.8 0 290.9 240.9 290.9 240.9L1.8 477z"/>
    <path fill="#de2110" d="M.3 33.9c1.6-15 260.9 208.4 260.9 208.4L.2 451.7V33.9z"/>
  </g>
</svg></g><rect width="11.34375" height="27" transform="translate(151.5625, 432)" fill="rgb(255,160,37)" style="fill: rgb(255, 160, 37);"/><text transform="translate(167.90625, 438)"><tspan fill="rgb(255,255,255)" x="0" y="12" style="font-family: Roboto; font-weight: 700; font-stretch: 100%; font-size: 12px;">4</tspan></text><text transform="translate(13, 469.296875)"><tspan fill="rgb(255,255,255)" x="20.184375" y="12" style="font-family: Roboto; font-weight: 400; font-stretch: 100%; font-size: 12px;">Germany</tspan></text><g id="image"><svg xmlns="http://www.w3.org/2000/svg" id="flag-icons-de" viewBox="0 0 640 480" width="16" height="12" x="13" y="469">
  <path fill="#fc0" d="M0 320h640v160H0z"/>
  <path fill="#000001" d="M0 0h640v160H0z"/>
  <path fill="red" d="M0 160h640v160H0z"/>
</svg></g><rect width="8.5" height="27" transform="translate(151.5625, 463)" fill="rgb(255,160,37)" style="fill: rgb(255, 160, 37);"/><text transform="translate(165.0625, 469)"><tspan fill="rgb(255,255,255)" x="0" y="12" style="font-family: Roboto; font-weight: 700; font-stretch: 100%; font-size: 12px;">3</tspan></text><text transform="translate(13, 500.296875)"><tspan fill="rgb(255,255,255)" x="19.95" y="12" style="font-family: Roboto; font-weight: 400; font-stretch: 100%; font-size: 12px;">Trinidad and Tobago</tspan></text><g id="image"><svg xmlns="http://www.w3.org/2000/svg" id="flag-icons-tt" viewBox="0 0 640 480" width="16" height="12" x="13" y="500">
  <path fill="#fff" d="M0 0h640v480H0z"/>
  <path fill="#e00000" fill-rule="evenodd" d="M463.7 480 0 1v478.8zM176.3 0 640 479V.2z"/>
  <path fill="#000001" fill-rule="evenodd" d="M27.7.2h118.6l468.2 479.3H492.2z"/>
</svg></g><rect width="8.5" height="27" transform="translate(151.5625, 494)" fill="rgb(255,160,37)" style="fill: rgb(255, 160, 37);"/><text transform="translate(165.0625, 500)"><tspan fill="rgb(255,255,255)" x="0" y="12" style="font-family: Roboto; font-weight: 700; font-stretch: 100%; font-size: 12px;">3</tspan></text><text transform="translate(13, 531.296875)"><tspan fill="rgb(255,255,255)" x="20.184375" y="12" style="font-family: Roboto; font-weight: 400; font-stretch: 100%; font-size: 12px;">Hong Kong</tspan></text><g id="image"><svg xmlns="http://www.w3.org/2000/svg" xmlns:xlink="http://www.w3.org/1999/xlink" id="flag-icons-hk" viewBox="0 0 640 480" width="16" height="12" x="13" y="531">
  <path fill="#EC1B2E" d="M0 0h640v480H0"/>
  <path id="hk-a" fill="#fff" d="M346.3 103.1C267 98 230.6 201.9 305.6 240.3c-26-22.4-20.6-55.3-10.1-72.4l1.9 1.1c-13.8 23.5-11.2 52.7 11.1 71-12.7-12.3-9.5-39 12.1-48.9s23.6-39.3 16.4-49.1q-14.7-25.6 9.3-38.9M307.9 164l-4.7 7.4-1.8-8.6-8.6-2.3 7.8-4.3-.6-8.9 6.5 6.1 8.3-3.3-3.7 8.1 5.6 6.8z"/>
  <use xlink:href="#hk-a" transform="rotate(72 312.5 243.5)"/>
  <use xlink:href="#hk-a" transform="rotate(144 312.5 243.5)"/>
  <use xlink:href="#hk-a" transform="rotate(216 312.5 243.5)"/>
  <use xlink:href="#hk-a" transform="rotate(288 312.5 243.5)"/>
</svg></g><rect width="8.5" height="27" transform="translate(151.5625, 525)" fill="rgb(255,160,37)" style="fill: rgb(255, 160, 37);"/><text transform="translate(165.0625, 531)"><tspan fill="rgb(255,255,255)" x="0" y="12" style="font-family: Roboto; font-weight: 700; font-stretch: 100%; font-size: 12px;">3</tspan></text><text transform="translate(13, 562.296875)"><tspan fill="rgb(255,255,255)" x="20.184375" y="12" style="font-family: Roboto; font-weight: 400; font-stretch: 100%; font-size: 12px;">Nepal</tspan></text><g id="image"><svg xmlns="http://www.w3.org/2000/svg" id="flag-icons-np" viewBox="0 0 640 480" width="16" height="12" x="13" y="562">
  <defs>
    <clipPath id="np-a">
      <path fill-opacity=".7" d="M0-16h512v512H0z"/>
    </clipPath>
  </defs>
  <g clip-path="url(#np-a)" transform="translate(0 15)scale(.9375)">
    <g fill-rule="evenodd">
      <path fill="#ce0000" stroke="#000063" stroke-width="13.8" d="M6.5 489.5h378.8L137.4 238.1l257.3.3L6.6-9.5v499z"/>
      <path fill="#fff" d="m180.7 355.8-27 9 21.2 19.8-28.5-1.8 11.7 26.2-25.5-12.3.5 28.6-18.8-20.9-10.7 26.6-9.2-26.3-20.3 20.6 1.8-27.7L49 409l12.6-25-29.3.6 21.5-18.3-27.3-10.5 27-9L32.2 327l28.4 1.8L49 302.6l25.6 12.3-.5-28.6 18.8 20.9 10.7-26.6 9.1 26.3 20.4-20.6-1.9 27.7 27-11.4-12.7 25 29.4-.6-21.5 18.3zm-32.4-184.7-11.3 8.4 5.6 4.6a94 94 0 0 0 30.7-36c1.8 21.3-17.7 69-68.7 69.5a70.6 70.6 0 0 1-71.5-70.3c10 18.2 16.2 27 32 36.5l4.7-4.4-10.6-8.9 13.7-3.6-7.4-12.4 14.4 1-1.8-14.4 12.6 7.4 4-13.5 9 10.8 8.5-10.3 4.6 14 11.8-8.2-1.5 14.3 14.2-1.7-6.7 13.2z"/>
    </g>
  </g>
</svg></g><rect width="8.5" height="27" transform="translate(151.5625, 556)" fill="rgb(255,160,37)" style="fill: rgb(255, 160, 37);"/><text transform="translate(165.0625, 562)"><tspan fill="rgb(255,255,255)" x="0" y="12" style="font-family: Roboto; font-weight: 700; font-stretch: 100%; font-size: 12px;">3</tspan></text><text transform="translate(13, 593.296875)"><tspan fill="rgb(255,255,255)" x="20.184375" y="12" style="font-family: Roboto; font-weight: 400; font-stretch: 100%; font-size: 12px;">Sri Lanka</tspan></text><g id="image"><svg xmlns="http://www.w3.org/2000/svg" xmlns:xlink="http://www.w3.org/1999/xlink" id="flag-icons-lk" viewBox="0 0 640 480" width="16" height="12" x="13" y="593">
  <path fill="#ffb700" d="M0 0h640v480H0z"/>
  <path fill="#ff5b00" d="m26.7 240 88-213.3h88v426.6h-88z"/>
  <path fill="#005641" d="M26.7 26.7h88v426.6h-88z"/>
  <path fill="#8d2029" d="M229.3 26.7H616v426.6H229.3z"/>
  <path id="lk-a" fill="#ffb700" stroke="#000" stroke-width="1.1" d="M579.3 408.6s3.6 7.3 7.6 10.4c6 4.4 18 4 23.3 9.3 6.1 6.1-.5 14.2-.5 15l.4 4.2s-4.2 0-6 .3c-2.6.4-3.6 2.6-8.6 2.3-12.3-.8-11.8-12-12.5-21.5-.6-3.6-2-8.4-2.9-12-.7-3-.8-8-.8-8z"/>
  <use xlink:href="#lk-a" width="100%" height="100%" transform="matrix(-1 0 0 1 845.3 0)"/>
  <use xlink:href="#lk-a" width="100%" height="100%" transform="matrix(1 0 0 -1 0 480)"/>
  <use xlink:href="#lk-a" width="100%" height="100%" transform="rotate(180 422.7 240)"/>
  <g transform="translate(0 -76)">
    <use xlink:href="#lk-b" width="100%" height="100%" stroke="#000" stroke-width="5.6"/>
    <g id="lk-b" fill="#ffb700">
      <path d="m363.5 415.8 2.3-1.4 1 1.4c1.3 1.8 5 1.7 7.4 0l1.9-1.5 1.6 1.4c2 1.9 5.8 1.9 8.3 0 1.7-1.2 2-1.3 3-.3.7.6 2.7 1.2 4.4 1.5 3.2.4 3.2.4 5-2.4 1.6-2.3 1.8-3.2 1.5-5.5l-.6-5.3c-.2-2.6-.1-2.6 3.6-4l5.4-2c1.5-.9 5.7-5.8 5.7-6.8 0-.2-1.6-.6-3.6-.8q-12-1.4-4.1-13c8.3-13 13.4-25.5 13.4-33.4q0-5.3.7-4c1.9 3.1-1.5 16.4-6.5 26l-2 3.8 1.9-.4c1-.3 7.4-3 14-6 18.2-8.2 24.4-9.8 36.2-9.3 9.9.4 14 2.3 21 9.6 3.7 4 7.3 6.7 13.8 10.8 13.8 8.6 14.4 9.4 15.1 19.6s.3 10.9-7.5 12.6q-10.2 2.3-12 9-1 3.4 4 .1l2.5-1.6 1.1 1.6c1.5 2.1 4.5 2.1 7 0l2-1.5 2 1.5c3 2.5 7 1.9 8.2-1.2q.3-.8 2 .7c2.3 2 8 2.8 8.6 1.2.2-.6-.2-2-1-3.2-3.3-5-4.4-7.3-4.4-10 0-3.8 1-5.7 5.4-8.7 5.2-3.8 6.8-8.6 2.8-8.6-2.4 0-4.9-2.2-6.5-5.7-3.2-7.2-2.5-15.2 2.3-28.6a58 58 0 0 0 5.4-25.2c0-7.4-.2-8.6-1.8-12.7a45 45 0 0 0-4.6-8.1l-2.8-3.7 3.5-3c10.8-8.9 8.6-23.5-4.4-29.1-4-1.8-5-1.9-12-1.9-4 0-10.5.6-14 1.3a98 98 0 0 1-14.2 1.2c-6.8 0-8-.2-10.6-1.6-2.7-1.4-3.2-2.1-3.7-5.5a2 2 0 0 0-1.1-1.5c-1-.3-5.2 3.4-5.8 5-.4.9-.6.8-1.5-.3a13 13 0 0 1-2-3.6q-1.6-4.9 4.2-7.6l3-1.4-1.8-1.1c-3.6-2.3-9.8-.7-12 3-.7 1-1.4 2-1.6 2s-1.4-1-2.6-2.3c-4.7-4.6-3.1-11.4 3.2-13.4 3.3-1.1 6.3-.3 6.9 2 1 3.3 3.8-1.1 3.3-5.2-.3-2.7-.3-2.8 1.6-2.8 2.6 0 8 3.4 9.8 6 2 3.1 1.8 8-.4 11.6l-1.7 2.8 2.3-.4c3.2-.7 6.4-2.7 8-5.2a12 12 0 0 0 .4-10.4c-1.5-2.7-1.3-3.1.9-2.2 3.6 1.5 5.6 3.2 7 6.1 1.4 2.6 1.5 3.2.8 6a17 17 0 0 1-2.2 4.8c-1.2 1.6-1.3 1.9-.3 1.9 1.8 0 5.4-1.7 6.7-3 .7-.8 1.7-2.5 2.2-4l1-2.5 1 2c1.5 2.7 4.5 5.2 8.1 6.8 3.9 1.6 5.5 1.7 3.5.2-1.4-1-4-8.5-3.1-9.2a51 51 0 0 1 11.7 9c5.7 5.1 9.3 6.8 14.5 6.8 6.7 0 10.6-5.8 7.6-11.3-1.7-3.2-5.6-3.7-8-1q-1.5 1.8-1 3.7c.4 1.6.3 1.8-1.2 1.8-2 0-5.8-2.5-12.6-8.2a102 102 0 0 0-32.1-18.7 70 70 0 0 0-24.3-1.3c-6.4 1.2-14 4.9-18.2 8.8-7.3 7-7.4 16.3-.3 24.8l2 2.4-1.3 2.2a9 9 0 0 0 .4 10.4c1 1.4 2 2.5 2.3 2.5q.3-.2.5-2 .3-4.1 3.4-5.2c1.8-.7 3-.3 11.2 3 8.7 3.4 23 3.6 38.2.6a43 43 0 0 1 20 .2c7.2 3 8.8 10.7 3.6 16.5-2.3 2.6-4.4 3.6-11.7 5.6a54 54 0 0 1-19.5 1.5c-10.8-.1-14.7.1-19 1-4.9 1-7.8 1.1-21.8.8l-16.3-.4 1.8 1.4 3.1 2.3c1.3.7 1.2.8-.6 1.5-1 .4-3.4.7-5.3.7h-3.3l-.4 2.8a10 10 0 0 0 0 4q.6 1.4-.8.8c-.7-.3-2.6-.8-4.3-1.1a27 27 0 0 1-5-1.6c-1.9-1-2.1-1-2.8.3-.6 1-6.2 5.2-7 5.2a27 27 0 0 0-2.2-7.5c-1-2.1-1.9-4.5-2.2-5.2q-.4-1.6-1-.3c-.3.5-.7 2-1 3.2a16 16 0 0 1-1.8 4.6l-1.5 2.2-1-1.9c-1-2-2.6-4.2-3.2-4.2q-.3 0-.7 1.5c-.5 1.6-4.4 6.3-5.4 6.3-.3 0-.6-1.3-.6-3 0-1.5-.3-2.9-.7-2.9q-.6.1-.7 1c0 1.2-3.3 5-4.5 5q-.8 0-1.7 1c-1.2 1.3-2.2 1.1-1.7-.4a9 9 0 0 0-.4-3.8l-1-3.2q-.2-.7-4 .5c-4 1.3-5.4 1-3.3-.6.8-.6 2-2.7 2.6-4.6.7-2 1.7-3.7 2.2-3.9q1.1-.4-.2 1.2a6 6 0 0 0-1.1 2.6c0 .5-.5 1.8-1 2.9s-1 2-.9 2.1 1.7-.5 3.5-1.3l3.2-1.6v1.4c0 .8.4 2.8.9 4.5l.9 3 2.2-1c2.2-1 4.3-4.6 4.3-7.5 0-1.4.8-1.2 1.2.3 0 .4.6 2.1 1 3.7l1 2.8 1.5-1.8c.9-1 1.9-3 2.3-4.3.8-2.4 2-3.5 2-1.7 0 1.2 3.4 5.8 4 5.4.4-.2 1-1.9 1.5-3.8 1-4 2.5-6.6 3.5-6q.6.4.3 1c-.2.2.6 2.8 1.8 5.6l2.6 6.3c.4 1 .8 1 3.3-1.3 1.5-1.4 3-2.9 3.1-3.4.3-.8.6-.7 2 .2a25 25 0 0 0 9.5 2.8c.2-.2.4-2 .4-4l.1-3.7 2 .4c1 .3 3.3.3 5 0l3-.4-2.7-2c-1.5-1-3-2.3-3.4-2.9s-1.7-1.2-3.2-1.3c-4.1-.4-11.4-4.4-11.4-6.4q.2-.4 2.2 1.4c2.8 2.5 6.6 4 10 4h2.4l-1.5-2a12 12 0 0 1-2-5.2c-.2-3-.5-3.4-3.6-5.5a35 35 0 0 1-5-4.3l-1.7-1.9-.9 2.3q-.8 2.1-1.3 2.3c-.2 0-1.2-.8-2-1.7a7 7 0 0 0-2-1.6c-.3 0-1 1.2-1.8 2.7l-1.4 2.7-1-1.5a24 24 0 0 0-3-3.4q-1.9-1.6-1.3-1.8c.4 0 1.7 1 3 2.3l2.2 2.3 1-1.7a6 6 0 0 0 .5-3.8q-.6-2.6.3-.7a16 16 0 0 0 3 3l2.2 1.8 1.5-2.7c1.5-2.8 1.5-2.8 2.1-1.1 1 2.1 7.5 7.5 13 10.6q1.5.8-1-5a13 13 0 0 1-.8-4c0-1.8-.5-2.6-2.8-4.4a11 11 0 0 1-5-8.4c-.3-1.7-.9-3.5-1.4-4.1q-.9-1.7-.6 2.6c.2 2.1-.1 4.7-.6 5.8l-.8 2-.6-1.7c-.4-.9-2-2.5-3.5-3.5s-2.6-2-2.4-2.2 1.8.7 3.5 2c2.7 2.1 3.2 2.3 3.6 1.4.4-1 0-5.6-.8-8.8-.4-1.6-.4-1.6 1.6.4q2 1.9 2.9 6.2c.8 3.8 1.2 4.5 4.7 7.6 2.1 1.9 4 3.3 4.1 3.2.2-.2.4-5 .6-10.8.4-11.1 0-13.8-2.7-17.2l-1.4-1.8 2.2-2.3a16 16 0 0 0 4.7-8.8l.4-2.7-2.4 2.3c-2 1.9-3 2.3-5.3 2.3s-3.2-.4-4.7-2a20 20 0 0 0-8.3-4.8q-1.7-.6-1.6.6c0 .6-.6 2.2-1.4 3.7l-1.4 2.6-3-3c-1.9-1.7-4-3.2-5.7-3.6-4.1-1-4.3-1-4.3 2.1q-.1 7.1-5.6 2.5c-2.8-2.4-5-3-10.3-2.3l-4 .4.7 1.8c.6 1.5.5 2.2-.8 3.9-2.1 2.8-4.8 4-9 4-2 0-4.4.4-5.4.9s-3.6 1-5.7 1.2c-2 .2-4.3.6-5 .8-1 .4-1 0-.7-2.2.5-3.4-2-6-5.7-6-4.9 0-7.1 4.4-5.2 10.2l1 3.8a23 23 0 0 0 5.2 6.6c2.6 2.6 5 5.3 5.4 6a9 9 0 0 0 3 2.5l2.2 1.2-.3-2.4q-.5-4 1.6-1.1c.5.6 1.8 1.7 2.8 2.3 1.7 1 2 1 2 .2 0-.6.3-1.9.7-2.9l.7-1.8 1.3 2.5c.7 1.4 3 4.5 5.1 7 4.1 4.7 6.7 10 5.4 11.2-.6.5-2 .5-5-.1-2.2-.4-5-.7-6.2-.5-2.3.3-2.5 0-1-1.8 1.5-2 1.2-2.3-1.8-2.3-3.5 0-12.2-1.7-15.6-3-3.2-1.3-4-1-5 2.1l-1.7 5.6-1 3 3.6-.3a37 37 0 0 0 5.5-1 6 6 0 0 1 2.2-.3c.2.1-.3 1.3-1 2.7l-1.4 2.4 2.2-.4c1.2-.3 3-.9 4-1.4 1.8-.8 2-.8 3.4 1.5q2.7 4 3.3-.3.4-4.6 3.2 1.4c1.8 3.8 3.6 5.2 4 3q.3-1.4 2.1-2.8 3.3-2.2 4.7 1.3c1 2.5-1.2 5-7.4 8.8a43 43 0 0 0-21.7 31c-1.9 11.8 4 24 15.6 32.9 5.6 4.2 14.5 8.6 13.9 7-2.4-7.3-2.3-21 .1-23.3.4-.4.3 1-.3 3.1-2 7.9-1 14.1 4 28.7 4.4 13.2 3.8 18.9-2.6 22.6-2 1.2-3.3 1.4-8.8 1.3-6 0-6.7 0-8.6 1.6a16 16 0 0 0-4.3 8.6q0 1.9 4-.4z"/>
      <path d="m460.5 415.5 2.5-1.6 1.7 1.6c2.2 2.1 4.9 2 7-.1q1.6-1.6 1.9-1.5l.9 1.6q.7 1.3 3.6 1.5c2.3.1 3 0 4-1.4l1-1.7 2.5 1.6c6.8 4.4 10.4-.2 7.3-9.3-1.5-4.6-.6-7.2 4.3-13 2.1-2.5 3.8-5.2 3.8-6 0-1.1-.4-1.3-3.2-1.2-2.6 0-3.4-.3-4.8-1.8q-3.4-3.8.4-8.6l2-2.5-3.6-2.4a60 60 0 0 1-8-7.1 26 26 0 0 0-17.5-9l-4.7-.5v3.6c0 4.5 2.2 8.9 8 16.3 6.6 8.4 7 9.7 7.3 20.7l.3 9.3-2 1.8c-1.7 1.6-2.4 1.9-8 2.2-5.3.3-6.5.6-8 2a9 9 0 0 0-3.4 5.3c-.3 1.5-.2 1.8.9 1.8.7 0 2.4-.7 3.8-1.6m-142.2-24a6 6 0 0 0 1-3c0-1 .6-1.4 3.2-1.8l3.1-.4-2-1.7c-2.5-2-2.8-3.5-.6-3.5s5.8-2.2 6.4-3.9q.3-1.4-.4-2.3c-1.2-1.4-3.5-1.2-3.9.4-.5 1.6-1.2 1.6-3 0-2.5-2.5-2.6-7.6 0-10.6 1.1-1.4 1.1-1.4-.4-2.9-1.6-1.6-2.8-4.6-2-5.4.2-.2 1.5 0 2.8.5 2 .6 2.7.6 3.5 0 2.3-1.9-.2-4.3-4-3.7q-2.2.4-2.4-.8c-.2-.6-1.5-1.4-3-1.8-2.7-.7-2.7-.7-2.7 1.2q0 3-3.4 1.1c-1.8-1-3.5-.2-3.5 1.7q0 2.7 5 2.4c2.4-.1 2.5 1.7.2 4.3l-1.7 2 1.3 1.9c2 2.8 1.8 7.5-.3 9.9l-1.7 1.8-1.1-1.5c-1.6-2-3.7-1.9-4.3.3-.3 1.4 0 2 1.8 3.6 1.2 1 3 1.8 3.9 1.8 2.3 0 2.2 1.9-.2 3.7l-2 1.5 3 .4c1.6.3 3 .7 3 1 0 1.3 2 5.2 2.6 5.2q.8-.2 1.8-1.5z"/>
      <path d="M356.5 374.9c2.7-1 8.5-6 8.5-7.1 0-.4-1.6-2.2-3.6-4-4-3.6-8.5-9.9-9.7-13.5-.6-2-3.5-5.2-11.7-13.2l-10.9-10.5-3.1.8c-1.8.4-3.9.8-4.7.8-1.5 0-1.5 0 .5 1.6l2 1.6 3-1.6c2.7-1.6 2.8-1.6 3.1-.3.2.7-.2 2-1 2.9-.7.9-1.1 2-1 2.3q.3.6-1.5 1.6c-2 1-3.5 4.3-1.9 4.3 1.5 0 4.7-4 4.3-5.3q-.2-1.2.2-1.6c1.3-.7 1.2 2.4 0 4-.8.8-1.2 1.8-1 2.2q.2.6-1.6 1.6c-2 1-3.5 4.3-1.9 4.3s4.7-3.8 4.4-5.2q-.3-1.2.1-1.7c.9-.4 1.3 2 .6 3.2a2 2 0 0 0 0 2.2c.7 1.3 0 3.7-1.3 4.5q-.8.5 1.2 2c2 1.4 2 1.6 2 8 0 5.4.2 6.8 1.2 7.7q1.3 1.5 1.2 0c-.1-1.5 2-2.4 3.5-2.4.5 0 3.4 2.5 6.5 5.5s6.4 5.7 7.3 5.8l2.2.4c.3 0 1.7-.3 3.1-1zm-33.3-26.1c0-1.7-3.6-3.6-7.9-4-3.5-.5-3.5-.4-3.5 1.3 0 1.4.5 2 3 3 3.8 1.7 8.4 1.5 8.4-.3"/>
      <path d="M327.1 348.6c1.8-1.6 2.6-3.4 1.5-3.4s-4.4 2.8-4.4 4c0 1.6.6 1.5 3-.6zm-3.7-5.1q.3-1.3-2.3-2.5c-4-1.7-8.6-2.6-9.7-1.7-2.1 1.7-.7 3.9 2.6 4.3 1.4.1 3.2.5 4.1.9 2.6 1 5 .5 5.3-1m0-5.3c.2-1.3-.7-1.8-8-4.4-5.5-2-7.9-1-6.1 2.3.6 1.1 1.6 1.6 3.9 2 1.7.2 4 .7 5.1 1.1q4.6 1.5 5-1zm3.6-4.9c1.1-1.1 2-2.4 2-3 0-1.5-4.3 1.3-4.9 3.3q-.8 3.5 3-.3zm-3.6-.3q.3-2.4-7.6-4.1-5.8-1.3-5.3 1.4c.2 1 1.5 1.7 5 2.8 5.9 1.8 7.6 1.8 7.9-.1m5-7.4c6.8-3 7.3-10.5 1-12.5q-3.8-1.2-5.2 1.4c-.8 1.4-.3 3.8.7 3.8q.6.1.7 1c0 2.7-10.2 3.8-14.4 1.7-1.5-.7-2-2.7-.9-2.7 1 0 1.6-2 1.1-3.3q-1-3-5.3-1.8c-6.3 1.6-6.1 9 .3 12a34 34 0 0 0 22 .4"/>
      <path d="M324.3 319.8q.5-.7-.4-1.4-2-1.8.2-4.7c1.2-1.4 1.3-3.6 1.7-25.1.7-37.1 3.5-65 7.1-71.8 1.5-2.6 1.3-2.6-2.5 0a36 36 0 0 0-11.7 13.6c-6.2 11.5-8.3 27-8.3 60.2 0 18.8.1 21.3 1.2 23 1 1.8 1 2.4.4 4.2-.5 1.1-.7 2.3-.5 2.5 1.4 1.3 11.4 1 12.8-.5m56.1-35.4c.3-.3-.2-2-1-3.6-1.2-2.6-1.7-3-3.4-3a65 65 0 0 1-23-6.4c-5.1-2.3-7-2.8-7.5-2.2-1.6 1.5 1 5 5 6.9a64 64 0 0 0 18.3 3.7c2.7 0 2.8 0 1.2 2.3l-1 1.6h3l5 .6c3 .7 3 .7 3.4.1"/>
      <path fill="#000001" d="M412 301.1c0-1-2.9-3.5-5.7-5.2-2.3-1.3-2.7-1.4-2.7-.3 0 1.6-1.4 5.7-2 5.7q-.6-.2-1-1.7c-.3-1-1.4-3-2.5-4.3l-2-2.5-1.4 2.3c-1.4 2.2-3.9 4.3-5 4.3-.2 0-.3-1.2 0-2.5q.2-2.6-.5-3t-.8.2c0 .8-3.4 4.6-4 4.6q-.6-.1-1-2.4l-.8-4.8q-.2-1.7 1 2l1.6 4.1 1.6-2.5a11 11 0 0 0 1.6-3.4q0-.8.7-.5c.4.2.9 1.9 1.1 3.7l.5 3.4 1.8-2 2.6-3.2c.7-1.2.8-1.2 2.3 0 .8.8 2.1 2.5 2.9 3.9s1.5 2.4 1.6 2.3l.6-3.2.4-3c.1-.5 5.4 3 7.4 4.7 1.2 1.1 2.4 1.9 2.6 1.7s.4-1.8.4-3.7c0-2.8-.3-3.6-2-5.1-2-1.8-2-1.8-2.8-.5-1 1.7-2.1 1.7-2.1 0 0-1.2-3.8-5.9-4.7-5.9q-.6.2-1.8 2.3c-1.2 2.1-1.5 2.3-1.7 2.3-1 0-6.3-6-6.3-7q0-1.3 1.3.8a21 21 0 0 0 3.1 3.6c2 1.8 2.8 1.4 3.6-2.1q.5-1.6 1-1.8c.8 0 5.4 4.9 6 6.5l.7 1.6.5-1.8q.9-3.2 2.3-.2c.4.8 2.4 2.6 4.4 3.8l3.7 2.4.7-2.4q.8-2 1.2-1.6c.4.5-.6 4.5-1.3 5.3 0 .1-1.3-.6-2.6-1.5l-2.5-1.8v3.2c0 1.7-.2 3.8-.4 4.6-.5 1.6-1.7 2-1.7.6zm-18.5-25.4c-4.4-3.6-5-4.4-5-6.2l.1-1.8.3 1.7c.2 1 1.4 2.6 2.8 3.8l2.6 2 1.5-1.8c.9-1 1.6-2.2 1.6-2.6 0-1.2.2-1.1 3.2 1.5 2.6 2.3 2.7 2.3 3 .8.3-.8.2-2.4 0-3.5q-1.5-4.4.5-1.6l2.4 2.8c1 1.1 1.1 1.1 1.5-.3.3-.9.5-2.4.5-3.4v-1.9l2.3 2.7c2.3 2.6 2.5 2.7 3.1 1.4.5-.7.8-2.4.8-3.7q0-2.6.6-1.6c.8 1.2.3 4.2-1.1 6.8l-1 2-1.3-2.1c-1.7-2.6-2.3-2.6-3.3.2q-1.4 4-2.7.8c-.6-1.3-.8-1.1-1.2 1.7l-.5 3-3-2.3-3-2.3-1.5 1.5c-.7.9-1.3 2-1.3 2.4q-.1 1.5-1.9 0m39-13.6c-1.5-1.4-2.6-2.8-2.4-3q.5-.5.6-.2l3 3c3.4 3.6 2.7 3.7-1.1.2zm-52-5.4c-1.4-2-1.3-3.2.5-5.4 1.2-1.5 1.8-1.7 4-1.4 1.5.1 4.6 1.4 6.9 2.8a21 21 0 0 0 11 3l-1.7-2.8q-3.4-4.8.4-1.7c2.6 2.1 5.7 2.7 12.7 2.5l3.4-.1-2-2c-2.7-2.7-1.9-3 1.2-.3 2.8 2.5 2.7 2.7-3.4 3.3a23 23 0 0 1-7.6-.5c-3.4-1-3.6-.9-2.9.2q.7 1.1 1.3 1.2t.7.8c0 1.3-7.4.1-11-1.6-8-4.1-9-4.5-11-3.9a4 4 0 0 0-2.4 2.3c-1.3 3.3 3.4 5.9 5.3 3 .6-.9.5-1.4-.5-2.5q-2.1-2 .6-1c1.3.5 1.4 3.6.2 4.8-1.3 1.3-4.5 1-5.7-.7"/>
      <path fill="#000001" d="M412.4 248.6c-1-1-.2-1.2 4.3-1.3 5.6-.1 9-1 13-3.6 3.2-2 4.1-1.6 1 .5-2.7 2-7 3.4-11.3 3.8l-5.1.7q-1.4.3-2-.1z"/>
    </g>
  </g>
</svg></g><rect width="8.5" height="27" transform="translate(151.5625, 587)" fill="rgb(255,160,37)" style="fill: rgb(255, 160, 37);"/><text transform="translate(165.0625, 593)"><tspan fill="rgb(255,255,255)" x="0" y="12" style="font-family: Roboto; font-weight: 700; font-stretch: 100%; font-size: 12px;">3</tspan></text><text transform="translate(13, 624.296875)"><tspan fill="rgb(255,255,255)" x="20.184375" y="12" style="font-family: Roboto; font-weight: 400; font-stretch: 100%; font-size: 12px;">Fiji</tspan></text><g id="image"><svg xmlns="http://www.w3.org/2000/svg" id="flag-icons-fj" viewBox="0 0 640 480" width="16" height="12" x="13" y="624">
  <path fill="#68bfe5" d="M0 0v480h640V0z"/>
  <g stroke-miterlimit="4.8">
    <path fill="#fff" d="M420.9 193.2v136.4c0 44.6 80.6 71 80.6 71s80.5-26.4 80.5-71V193.2z"/>
    <path fill="#d21034" d="M490.3 241.2v61.4h-69.4v22.3h69.4v71.5l11.2 4.3 11.1-4.3V325H582v-22.4h-69.4v-61.4z"/>
    <path fill="#d21034" d="M420.9 193.2H582V246H420.8z"/>
    <g stroke-miterlimit="3">
      <g fill="#fff" stroke="#000" stroke-width=".8" transform="translate(-96.9 97.5)scale(.66486)">
        <ellipse cx="798.2" cy="192.2" rx="13.6" ry="11"/>
        <ellipse cx="798.2" cy="186.5" rx="12.1" ry="6.1"/>
        <ellipse cx="798.2" cy="198.8" rx="12.1" ry="6.1"/>
        <ellipse cx="798.2" cy="192.2" rx="12.1" ry="6.1"/>
      </g>
      <path fill="#ffd100" stroke="#000" stroke-width=".8" d="m578 235.4-1.3-3.6s-3.6-1.5-3.9-3.4c-.6-5.1-2.4-7-5.2-7.8a6 6 0 0 0-4.5.5c-.8 1.2-5 1.2-7.2 1.3-2.3 0-2.4-1-2.4-1-1.7 0-2.5-1.3-2.5-1.3-1.1-2.3-2-3.2-2.6-3.5 3 0 5.2-1.3 8.6-4.8 3.6-3.8 6.2-2.4 6.2-2.4-1.8 3.6.6 3.3.6 3.3 4.8-2.5.6-8.7-.8-8.4-1.5.3-1.9-.7-1.9-.7 0 1.1-1.6 1.6-1.6 1.6 1.2-7.1-3-9-3-9-.6.6-1 1.9-1 1.9-1.2 4.3-5.1 3.6-9.5 1.5-4.4-2-16 2.2-19.7 3.7s-10.4 3.7-16.4.4-7.5-2.8-9.9-2.1c-2.3.6-6.5 1.6-8 .8a9 9 0 0 0-3.4-.9c.4-.2-.2-1.2-.2-1.2-1.9-2.5.2-4 .2-4s-3.4 1-2 6.8l.6.8s.4 1.9 1.4 2.4v.4s.9-.4 1.1.8 1.6 0 2.1-1c0 0-.9 5.4 5.7 6.7 0 0-.7-.9-.5-1.4.3-.6-.8-1-.7-1.8s-1.6-1.2-.3-1.9 2-1.9 5-.1c2.9 1.7 5.2 1.3 5.2 1.3s-1.8-3.6-.8-3.6 5.4 5.4 7.5 5.2c2.2-.3 6.4-2.8 8.5-1.9 0 0 .2-1 8.2-2.4s18-5.4 21.7-1.9c0 0 .4 2.8 2 3.5 0 0-.3 5.8-10.2 2.6l-3.6-1s-.6-1.7-19.5 3.2c0 0-1.1.4-1.9.9s-1.7-.3-5.5 1c-3.7 1.5-17.7 6-26.3 4.4-1.9-.6-3.6-.3-3.7-.6 0-.3 1 .1 1 .1q-.9-1-.9-.8c-7.2-.8-6-4-6-4l.4 1c1.2-1.6-.4-5.2-.4-5.2h-.1v-.3l.5-.4c3.5-3 7.5-3.5 7.5-3.5-2.4-3-7.4-1.4-7.4-1.4.1-3.5-1.4-7.7-1.4-7.7a12 12 0 0 0-7.7 4.7c-.2-3.7-4.9-5.8-4.9-5.8 1.8 2.1.7 7.2.7 7.2h.2-.5l-.1 1.1h-.2s-1.7.6-3.7 5.2c0 0-.2 1-1 2v-.4s-2.3 3-7.4 0c0 0-7-4.1-9.6-4-2.4.2-4 1.3-3.9 2 0 0-5.7-.4-7.6 2.8 0 0-4.3 1.6-.6 5 0 0 .5 1.6 1.5 2.4 0 0-.1-3.2.7-2.3l.5.6c.1.4.5 1.6 1.2 2.3l.6-.2c0-.8.2-1.8.4-2.2h.2l1 1.6 1-.6c.6 0 1.3.5 1.3.5l1.3-1.1c1.3.2 1.7-2.4 1.7-2.4a4 4 0 0 0 3.1-.5c.6 2 5.2 4.3 5.2 4.3h.2l-.6.4c2.1 1.5 6 1.1 6 1.1-1.6.6-1.4 3.7-1.4 3.7-1 .4-1 1.3-1 1.3 3.2 1.3 5.3.2 5.3.2q.1 1.4 0 1.2c-1.3 2.7-1.9 5.4-1.9 5.4h.1v.2s-5.7 2-8.1 4.7c0 0-.3-.8-1-.8s-2.8-1.8-3.8-2.1-2.5.3-3-.2c-.3-.4-.1-3.6-.8-4l-.7-2c-.4 1-2.4.8-2.4.8l-.8.6-.8-.1q-.3.1-.5 1l-.3.3v-.6c-.3.3-1.1-.1-1.4-.1q-.3 0-.5.9l-1.9.1c-.3.2 0 2.6 0 2.6-2.3 1.2-1.2 3.1-1.2 3.1 1.2 6 11.5 3.3 12.3 4.1s2.6 1 3.5 1c1 0 2.1 2.2 3.4 2.4s0-1.8 6.1-3.2 8.2-4 8.2-4c1.9-.4 2.4-2.7 2.5-3.6l.2 1.4c.3 2.1-1.2 3-1.2 3l5.3-1.7c2.1-.5 1.8-2.4 1.8-2.4 2 5.8 5.7 6.2 5.7 6.2.7-2.2.6-2.9.6-2.9h1.7c0-1.3-1-2.2-1.7-2.6l2.6 1.5 1-.1c0 .9 1.3 1.7 1.3 1.7l.2-1.2c1.2 1.6 3.4 1 3.4 1l-.2-.8c4.7 2.9 12.2-.8 12.2-.8 2 .4 2.3-.8 2.3-.8 2.2.3 2.8-1.3 2.8-1.3 5.3-.4 9.1-4.2 9.1-4.2 2.7-.2 2.8-2.1 2.8-2.1s2.6.5 5.2-2.7c6-8.5 14.8-4 14.8-4l-5.1.3c-13.5-.1-7.9 9-7.9 9h.8c1.3.2 5.7 3.7 4 6.2v.2c-2.8 3.7-7.8.2-9.3-3-1.4-3.2-4.4-2.5-4.4-2.5s-7.5 1.3-4.4 7.3c.1 1.5 1 3.2 3.8 4.8 1.5 2.2 6.5 2.4 10.1 1.6C524 244 533 240 533 240c.7-2 3-1.5 5-4.4 2-2.8-2.9-3.8-4-5.4-1-1.5.3-1.2.3-1.2 4.4 2.3 4.8-5.2 4.8-5.2a7 7 0 0 0 4.3 5.5c2.3-2.3.6-7.2.6-7.2 5.7 10.2 9.1 8.5 9.1 8.5-3-1.8-1.5-4.4-1.5-4.4 2.7 10.8 14 1.4 14 1.4-.6 1.6 0 2.5 1 3.5s2.2 1.4 1.6 3.3c-.5 1.8-5.8 1.4-5.8 1.4s-5-.2-4.6 4c.3 1 3.6 1.4 5 1.1 0 0-.6.2 1.3.4h2.2c2.1 0 4.5-.4 4.5-.4 2.9-.6 2.4-1.6 2.4-1.6 4.5-.8 5-3.8 5-3.8z"/>
      <path d="M429.6 216.7s.3-.5.7-.6q.6 0 1.2.8l.3-.2s-1.2-1.8-.8-3q.4-1 1.6-1.1v-.3q-1.5.3-1.8 1.3l-.2.7q0 1 .5 1.7l-.8-.2a1 1 0 0 0-.8.6zm141 24c-3 .5-7.5.7-7.9-.2 0-.2 0-.8 2.4-2.4l-.2-.5q-3.1 2-2.7 3c.7 1.8 7.2.8 8.5.6zm-58.4 1.7q-1-1.6 1-4.3l-.5-.3q-2 3-1 5z"/>
      <path d="M508.1 237.8q0 2.9 3.9 5.1l.3-.5q-3.6-2.2-3.6-4.6c-.2-2.5 2.5-4.5 2.6-4.5l-.3-.4c-.2 0-3 2.1-2.9 5zm52 .7c-.8 1.3-.5 2.8-.5 2.8h.5c0-.1-.2-1.4.5-2.5a3 3 0 0 1 2-1.2v-.5q-1.7.3-2.4 1.4zM441 215.1h-.2v.2s-.2 1.6-1 2h-.6l-1.3-.7q-.2-.3-.8-.2a2 2 0 0 1-.4-1.4q.1-1 1.6-2l-.2-.3q-1.5 1-1.7 2.3c0 1 .5 1.6.5 1.6v.1h.2q.3-.1.6.2l1.4.8h1c.7-.5 1-1.9 1-2.2 3.2.7 5.8-3.3 6-3.4l-.3-.2s-2.7 4-5.8 3.2"/>
      <path d="M433.1 214.5a3 3 0 0 0 .4 2q.5.8 1 .9.7 0 1.2-.6.3-.3.6-.4l.3.2.2-.2-.5-.3q-.5 0-.8.5t-1 .5q-.3 0-.8-.8a2 2 0 0 1-.3-1.7c.4-1.4 2.1-2.5 2.1-2.5l-.1-.3c-.1 0-1.9 1.2-2.3 2.7m-4.4 20.7q.2-.8 1.3-1.4c-.2 0 .6.6 1.3.6l.5-.3c.2.2 1.4 1.3 1.4 2.7q0 .5-.2.9l.3.1c.9-2.1-1.4-4-1.4-4h-.2l-.4.3c-.6 0-1.3-.6-1.3-.6q-1.4.6-1.6 1.6zm10.3-5.4c-.7.1-2.5.4-3.1 1.4q-.4.6-.1 1.2l.2.6c.6 1.6 1.2 3.2 1.9 3.6l.1-.3c-.6-.3-1.2-2-1.7-3.4l-.2-.6a1 1 0 0 1 0-1c.5-.7 2.2-1 3-1.1.4 0 .5 1.5.6 2.4h.3c-.1-1.4-.3-2.8-1-2.8"/>
      <path d="M433.9 231.4q-.4.6-.3.9c0 .1.2 4 2 4.8l.1-.3c-1.6-.7-1.8-4.5-1.8-4.6q0-.2.2-.6.4-.4 1.6 0l.1-.3q-1.3-.4-1.9 0z"/>
      <path d="M432.4 231.7c-.8.6-.7 2.2-.7 2.3h.3s0-1.6.6-2q.4-.3 1 0l.1-.4q-.8-.3-1.3 0z"/>
      <g transform="translate(-96.9 97.5)scale(.66486)">
        <path d="M862.3 169.5s1.3 3 1.3 5.3q0 .6-.3 1l-.5-1.3-.3 1s-.6 1.4.3 2.9q1.8 3 9 3.7v.1l-.4.1-.2.2v.4q.2.6 1.8.5l.7.1.6.2-.1-.1q1.6 0 3.6.8l-1 .2 1.1.5c.1 0 8.7 3.5 12.2 6.3-1 .9-5.3 4-12.7 2.2l-1.2-.3.8 1s4.9 5.6 5.9 9c-1.7 0-8.2 0-10.5-2l-.5.5s3 4.6 3.8 8.1c-1 .2-3 .3-4.3-1.4l-.6-.7-.3 2c-.6-.5-1.4-1.1-1.4-1.9v-.4l-1.8.3-3.8-2.3-.6-.4-.4.7.6.3c.8.6 2.2 1.7 2.3 3.3H863v.5c0 .3 0 1.4-.9 3.7-1.1-.2-5.3-1.7-7.8-8.8l-.8.2v.2c0 .7-.2 2.3-2.4 2.9l-6.5 2a5 5 0 0 0 .8-2.8v-.8l-.2-2.6q-.1-2.2 1.4-3l-.4-.8c-.1 0-9.6 3.9-14.3 2.3.2-1 1-4.2 2.6-7.6l-.2.2c.3-.2.6-.6.3-2.2v-.5l-.5.2s-3 1.4-7.4-.2q0-.7 1.2-1.4l.3-.1v-.8c0-1.2.1-4 1.8-4.6l-.2-.8s-5.1.4-8.2-1.3a11 11 0 0 1 4.5-1.9h.3v-.4a6 6 0 0 0-.5-2.3c1.2.4 2.6.7 3.1.3l.2-.1-.2-3.1h-.8l.1 2.6-3-.7-1.2-.4.8 1a4 4 0 0 1 .7 2.4 13 13 0 0 0-5 2.3l-.5.4.5.3c2.4 1.6 6.1 1.8 8 1.7a8 8 0 0 0-1.3 4.5v.4a3 3 0 0 0-1.5 2.2v.3l.2.1a11 11 0 0 0 7.9.5v.9c-2 4.2-3 8.3-3 8.3v.4h.3c3.9 1.6 10.7-.5 13.8-1.6q-.6 1-.7 2.5l.3 3.4c0 2.3-1.5 3.2-1.6 3.2l.3.8 8-2.4c1.8-.5 2.5-1.6 2.8-2.5 3.1 7.4 8 8 8.3 8.1h.3l.1-.3a14 14 0 0 0 1-4l2.4-.1v-.5q0-1-.4-1.8l1.4.8 1.3-.2c.3 1.3 1.9 2.4 2.1 2.5l.5.3.3-1.7c2 1.7 4.7 1.2 4.9 1.2l.3-.1v-.4c-.4-2.7-2.2-5.9-3.3-7.6 3.5 1.6 9.9 1.5 10.2 1.5h.4v-.5a30 30 0 0 0-5.6-9c8.2 1.5 12.6-2.8 12.8-3l.3-.3-.4-.2a54 54 0 0 0-11.6-6.3l.9-.2-1-.5a13 13 0 0 0-5.8-1.4c-1-1.2-1.5-1.3-1.6-1.4-5.6-.6-7.6-2.1-8.4-3.3v-.3l.2-.3q.7-1 .7-2.6c0-2.6-1.3-5.5-1.3-5.6z"/>
        <path d="M836.8 167.9s-.6 3-3.2 4.5q-3 1.6-7.6-.3l-.4-.1v.4a5 5 0 0 0 2 3.2q2 1.5 5.9 1.2c-.9 1-3.6 4.4-3.6 7.8v.5c.4.2 4.6 1.4 6.6-1.1 0 1 .4 4.5 1.7 5.8q1.1 1.3 1 2.7-.1 1.3-.2 1.4l-.2.6.5-.4c.2-.1 4.1-3 5.3-6.7 0 0 .7-1 1.9-1.3v.5c0 1.5.6 4.1 4.8 5.7l.3.1v-1c0-1.1 0-3 1.1-4a3 3 0 0 0 .6-3.3c.9.2 2.9.9 3.7 2.4 1.2 2.2 5.3.4 5.5.4l-.1-.5s-1.8.4-2.9-.3a2 2 0 0 1-.8-1.5l-.2-2.4q0-1.5-.7-2.2c.5 0 1.6 0 2 1 .8 1.6 3.3 1.7 3.4 1.7l.9.1-.7-.5s-2.2-1.4-1.8-3.3l.3-1.4c.6-2.5 1.6-6.6.7-9.2l-.4.2q.3 1 .3 2.2c0 2.2-.7 5-1 6.7l-.4 1.4v.5q.2 2 1.3 2.7c-.7-.1-1.7-.5-2-1.3-.7-1.4-2.3-1.4-3-1.3l-.6.1.4.4q1 .5.8 2.3l.2 2.3q.2 1.2 1 1.8 1 .5 1.7.5c-1.2.3-2.9.5-3.5-.6-1.1-2.2-4.3-2.7-4.4-2.8h-.5l.2.4s.4.6.4 1.4q0 .8-.7 1.7c-1.1 1.1-1.3 3.2-1.3 4.3v.4c-3.6-1.5-4.2-3.7-4.2-5v-1l.2-.3h-.4a4 4 0 0 0-2.5 1.8 15 15 0 0 1-4.7 6.2l.1-1q.1-1.4-1-2.9c-1.5-1.4-1.7-6-1.7-6v-.8l-.4.7c-1.6 2.8-6.2 1.4-6.3 1.4-.2-3.5 4-8.1 4-8.2l.4-.4h-.6q-4 .5-6.2-1a5 5 0 0 1-1.6-2.5q4.5 1.7 7.6.1a7 7 0 0 0 3.4-4.8c3-6.6 5.5-7.7 5.5-7.7l-.1-.4c-.2 0-2.8 1-5.8 8"/>
        <path d="M843.5 158h-.2l-2.4 3.3h.7a31 31 0 0 1 19.7 9.2l.3.3 2.3-2.5-.2-.3c-6.5-10.2-20.1-10-20.3-10zm.2.9c1.6 0 13.2.3 19.2 9.3l-1.3 1.4a33 33 0 0 0-19.3-8.9z"/>
        <path d="M841.6 164.8a11 11 0 0 0-2.1 4.8l.1.4a7 7 0 0 0-2 5.5q0 2 .6 3.8l.3.7c1.2 3.4 2.3 6.4 7.8 4.6 5.2-1.6 5.4-2 6.7-4.2l.4-.5c.7-1.2 1.5-1.4 2.3-1.7 1-.3 2-.6 3-2.4l.8-1.3c1-1.3 2.2-3 2.3-5h-.4a10 10 0 0 1-2.2 4.7l-1 1.4a4 4 0 0 1-2.6 2.2 4 4 0 0 0-2.6 1.8l-.4.6c-1.2 2.1-1.4 2.4-6.5 4s-6-.9-7.2-4.4l-.3-.7c-1.4-3.8-.3-7.6 1.6-9l.6-.5-.9.1v-.1c0-.7.7-2.6 2-4.5 1.2-1.6 4-3.1 4-3.2l-.2-.4c-.2.1-2.9 1.7-4.1 3.3"/>
        <path d="M839.2 178.7q1.3.8 3.7 0c0 .5 0 1.7 1 2.5q1.8 1.5 5.5.6v-.5q-3.6.9-5.2-.5a3 3 0 0 1-.9-2.4v-.4l-.3.2q-2.2 1-3.6 0c-1.5-1-1.4-3.7-1.4-3.7h-.4s-.2 3 1.6 4.2"/>
        <path d="M842 175q-.8.4-.8 1.1v.3c.2 1.2 1.5 2 2.6 2.3s2.6.4 3.1-.3q.4-.4 0-1.7a3.7 3.7 0 0 0-4.8-1.7zm2 3.3c-1-.3-2.2-1-2.3-2 0 0-.1-.7.5-.9a3.3 3.3 0 0 1 4.2 1.6q.4.7.1 1c-.3.5-1.4.6-2.5.3m-.4 2.7c-.3 2.5 0 2.6.1 2.6h.2l.2-.1 1.4-2-1.8-.8v.3zm.5.4.7.3-.8 1.1zm-4.2-2.4-.1 2.3 2-2.4-2-.2zm.4.2h.6l-.6.8z"/>
        <path d="M838.5 178.2s1.5 2.9 1.8 4q.3 1 2 1.7t2.7-.1l1.3-1.1q.5-.7 1-.5v-.5q-.8 0-1.3.6l-1.3 1c-.8.6-1.7.4-2.2.2q-1.6-.6-1.8-1.5c-.3-1-1.7-3.9-1.8-4zm2-8.6a5 5 0 0 0-2.4 2.8l.4.1s.7-1.8 2.1-2.5a3 3 0 0 1 2.4 0l.1-.4q-1.4-.6-2.7 0zm10.8 5.2c.2 0 3.2 2.4 1.5 5.2l.3.3c2-3.3-1.5-5.9-1.5-6zm-9.2.4s-.5 1.7 2 2.3c0 0-2.3 0-2.5-.6-.1-.6 0-1.9.5-1.7m7.5 2q0 .3-.3.3l-.3-.2q0-.3.3-.3t.3.3zm.2 1.2q0 .2-.2.2l-.3-.2.3-.3q.2 0 .2.3"/>
        <circle cx="848" cy="177.8" r=".3"/>
        <path d="M848.8 179.4a.3.3 0 1 1-.6 0q0-.2.3-.2zm-7.1-7.3a.3.3 0 0 1-.6 0 .3.3 0 0 1 .5 0z"/>
        <circle cx="841.6" cy="173.2" r=".3"/>
        <circle cx="840.1" cy="172.7" r=".3"/>
        <path d="m840.8 174.3-.2.3a.3.3 0 0 1 0-.6zm4.8-9.6s3.5 2.2.1 6.3c0 0 1.7-1.3 1.8-3.4s-1.2-3.8-2-2.9zm13.5 5.9c-1.2.6-2.8-.5-3.6-1.5s-2.5-1.3-3.6.6c-1 1.8-2.5 2.5-2.5 2.5s1.5-.8 3-2.5 2.4-.3 3.9.5c1.4.8 1.7 1 2.7.5v-.1z"/>
        <path d="M858.8 170.9a2 2 0 0 1-2.2-.1c-1-.8-1.7-1.8-2.8-1.2-1.2.6-3.3 2.2-3.3 2.2s3.5-2.4 4.2-1.8c.6.5 2.2 1.8 3.1 1.4z"/>
        <path d="M856.1 172.3c-1.1-.8-2.2 1-3.1.8-1-.2-1.7-1.8-1.7-1.8s.8 1.6 2 1.3c1.3-.4 2.1-1.2 2.9-.6s-.1.3-.1.3"/>
        <path d="M854.4 172.6a2 2 0 0 1-2.4-1.9s.7 1.8 2.6 1.5z"/>
        <path d="M854.3 171.2q.3.8-.5.8-1.1 0-1-.8c0-.5 1.4-.4 1.5 0m-7.8-3a1 1 0 0 1-.7.6q-.6 0-.5-.6c.1-.6 0-.7.5-.7s.7.3.7.7"/>
        <path d="M844 165.7s3.8 0 2 4.7c0 0 1.4-2.3.5-4-1-1.6-2.3-1.2-2.3-1.2s-.4.3-.2.5"/>
        <path d="M844 167.6q0 1.4 1.8 2.9l.3-.4q-1.7-1.3-1.7-2.5c0-1.2.6-1.3.6-1.3l-.3-.3s-.7.6-.8 1.6z"/>
        <path d="M844.8 168.4q.2.8 1.2 1.2l.2-.4q-.8-.3-1-1c-.2-.8.4-1.7.4-1.7l-.4-.3s-.7 1.2-.4 2.2m5.1 2.6s.7 1.5-.3 3.1l-1 1.6s1.2-2.3.7-3.2.6-1.5.6-1.5m14.6 15.8c3.8.7 12.5 7.5 12.5 7.5l.5-.6c-.3-.3-8.9-7-12.9-7.7zm3.4 9.5c.2 3.5 4 5.6 4 5.7l.5-.7s-3.5-2-3.7-5zm-9.3.8c0 3.8 3.6 8.4 3.8 8.6l.6-.5s-3.6-4.6-3.6-8.1zm-12.1.4q.8 1.9.4 2.2-.5.5-.6.4l.1.8q.6 0 1.2-.8.6-1-.4-3z"/>
      </g>
      <g fill="#fff" stroke="#000" stroke-width=".2">
        <path d="M429.6 216.3s.1 1.7 1.4 2.7c0 0-.1-1.8.3-2.6 0 0-.7-.8-1.7-.1zm2.6 1s.3 1.6 1.2 2.3l.6-.1s.2-2 .5-2.2-1.3.7-2.3 0z"/>
        <path d="m434.5 217.3 1 1.6 1.2-.7-.2-1.8s-.7-.2-2 .9zm4.7.3-1.3 1.1s-.7-.5-1.2-.5l.2-1.7s1-.7 2.3 1.1zm-9.3 16s-.2-2.4 0-2.5c0 0 1 .3 1.4 0 0 0 .5 1.8.4 2.6-.2.8-1.1.5-1.8 0zm6-2.4s-.1-2 .2-2.3c0 0 2 .3 2.4-.8l.7 2s-2.1-.3-3.4 1z"/>
        <path d="M433.8 231.6s.3-2.1.7-2.2c0 0 1 .3 1.3-.1v2.6s0-1.1-2-.3zm-2.3.3s.5-1.9.8-1.9 1 .5 1.4.2v1.4s-1.6-.4-1.9 1.9z"/>
      </g>
    </g>
    <g fill="#00a651" stroke="#000" stroke-width=".8">
      <path stroke-width=".5" d="M461.7 270.4s5.2 4.9 3.9 9.2c0 0 3.3-7.3-.3-9.5-3.6-2-3.7-.5-3.6.3z"/>
      <path fill="#964b36" stroke-width=".5" d="M455 275.1s-1.3 2 .2 3.3c0 0-1.7 2.4-.4 4.4 0 0-1 2.1-.8 4.4 0 0-.8 3.5 1 5.1 0 0 2 1 3 .1 0 0 1.7-2.6.6-5.3 0 0 1.2-2.3-.2-5.2 0 0 .4-1.6-.7-3.5 0 0 .7-1.2.1-2.2 0 0-2.5-2.7-2.8-1z"/>
      <path stroke-width=".5" d="M456.5 269s-6.2-12-10.6-12.5-4.6-4.8-4.6-4.8.5 2 4 2 10.2 5 11 8.7c.7 3.7 1.5 3.2 1.5 3.2z"/>
      <path stroke-width=".5" d="M456.5 268.1s2.3-15.1 12.2-15.4c9.9-.2 6.6.8 9-.8 0 0-6.6 3.4-10.7 4-4.2.4-7.6 8.5-7.4 10 0 1.5-2.3 4.4-3.4 3.4s.3-1.2.3-1.2z"/>
      <path stroke-width=".5" d="M458.8 273.8s2.3-6 6.1-4c0 0-3-5.8-8.4-.8 0 0 2.4 3.3 2.3 4.8zm-7.5-6s3.2 13.4-1.8 17.5c0 0 .2-6.9-2.9-11-3-4.2 3-8.7 4.7-6.5z"/>
      <path stroke-width=".5" d="M451.7 270.1s5.9 5.7 6.2 7.6c.4 1.8 1.8-5.7-1-7.8s-5.7-2.5-5.7-2.5l.5 2.8z"/>
      <path fill="#964b36" stroke-width=".5" d="M440.8 285s.5 2.3 2 2.8c0 0 0 1.7 1.4 2.2 0 0-.7 1.5.4 2.4 0 0-.2 3 .8 3.5 0 0 2.7-.1 3.6-.9 0 0 .5-1.9-1-3.8 0 0 .3-1.8-1.2-2.8 0 0 .5-2.5-1.4-3.4 0 0-.3-2-1.4-3 0 0-2.2 3.1-3.2 3z"/>
      <path stroke-width=".5" d="M443.7 282s-7.7-2.8-12 1.2c0 0 6.6 1 7.4 2.3s4.9-2.2 4.6-3.5z"/>
      <path stroke-width=".5" d="m441.3 286.8-1.4-1c-.7-.6-7.2-2.3-8.1 4 0 0-2.4-6.3 1-7 3.5-1 6.2 1 8.5 4m-5-12.8s2.3 5.2 3.2 5.4 1.5-.6 1.5-.6-3.1-4.6-4.8-4.8zm-1.8-7.9s-2-6.6-4.4-4.8-1.8 6.5-1.8 6.5-4.7-5-2-8.8 8.2.4 8.2 7.1z"/>
      <path fill="#964b36" stroke-width=".5" d="M439.9 279.8s0 1.3.9 1.6 2.5 1 2.5.3-1.3-3.7-1.8-3.3-1.4.4-1.6 1.4z"/>
      <path stroke-width=".5" d="M438.4 272s-.3-5.7 3.5-7.9c0 0 .7.2 1.1-1 0 0-3 7.3-2.1 11l-.1.4"/>
      <path stroke-width=".5" d="M439.1 265s6.8-14 15-9.1c0 0-8.6 1.7-11.7 7.9l-3.1 4.6z"/>
      <path stroke-width=".5" d="M435.5 270.1s-2-9.4-3.3-10.6c-1.2-1.3-3.3-2.6-5.9-.5 0 0 4.4-3.9 9-.6 4.7 3.2 3.7 8.4 3.7 8.4l-.5 6.5-3.1-2.9"/>
      <path stroke-width=".5" d="M442.8 281.3s-8.3-15.7-13.7-4.5c0 0-1 2.9.1 4 0 0-3-2.3-1.6-7.8s10.5-3 13.2 1.5 3.3 6.8 3 7c-.4.3-1-.2-1-.2zm23.3 4.5s6-12.4 9.5-6.8c0 0 1 2.8-.5 4 0 0-2.4-3-4.5.6-2.2 3.5-1.3 3.2-1.3 3.2s-2.2.6-3.2-1z"/>
      <path stroke-width=".5" d="M475 283s3.3 1.7 2.2 5.2c0 0 4.4-8.4-1.6-9.2 0 0 1.1 2.7-.5 4zm.5-8.6s7.9 2.3 8.1 5.7c0 0 1.4-6.6-3.1-8.6 0 0-5.4 1-5 3z"/>
      <path stroke-width=".5" d="M479 264c3.4-6.6 7.6 2.1 7.6 2.1s1.5-6.9-2.7-8.1c-4.3-1.3-7 14.7-7 14.7l-5 1s1.3-13.8 8.8-15h1"/>
      <path stroke-width=".5" d="M473 268s-4.8-9.8-8-10.8 1.7-2.5 3.7-.6 5.8 4.3 5.4 9.3zm-5 13.4s1.4-6.6 5.2-8.6 7.3-1.3 7.3-1.3-4.5 1-5.3 3.3-2 2.4-2 2.4z"/>
      <path fill="#964b36" stroke-width=".5" d="M466 285.8s-2 4-1.6 4.6c0 0-2.2 3.3-1.3 5 0 0 2.2 1.7 3.2 1 0 0 2.6-3.7 1.9-5.7 0 0 1.8-2.4 1.1-3.9 0 0-2.6.1-3.2-1z"/>
      <path fill="#000001" stroke="none" d="M455 278.6c.2.1 1.5.7 2.3.4l.6-.5-.5-.2c-.3.6-1.7.1-2.1-.1l-.2.4zm-.1 4-.2.5c.1 0 2.7.5 3.9-.6l-.4-.4c-1 .9-3.3.4-3.4.4zm-.7 4.4-.3.4s3 2.1 4.9-.2l-.5-.3c-1.5 1.9-4 .2-4.1 0zm-11.5.6.1.3c.1 0 2.6-1 2.8-2.9h-.3c-.1 1.6-2.5 2.6-2.6 2.6m1.4 2.3v.3c.2 0 2.5-.2 2.9-1.8h-.3c-.4 1.3-2.5 1.5-2.6 1.5m.5 2.4v.3c.1 0 2.7.1 3.6-1.3l-.3-.2c-.8 1.3-3.3 1.2-3.3 1.2m19.7-1.7s1.1 1.2 2.4 1.1a2 2 0 0 0 1.7-.8l-.4-.4q-.6.7-1.3.7c-1 0-2-1-2-1z"/>
    </g>
    <g fill="#964b36" stroke="#000" stroke-width=".3">
      <path d="m542 299.8-.3.3.4-.3zm9.3-2.3q-.2-.2-.3-.2l-.4-.8h-.3l-.7-1.4v-.7s-.2 0-.3-.2v-1.6l-.1-.5-.3-1.1v-1q0-.5-.1-1l.1-.9v-5.4l-.1-1-.1-.4v-1.6 2.6l-.2-4.3-3.4-1.6s-.3 6.2-.2 7c0 .9.4 6.7.2 7.4l-.5 4.3s-1.6 1.2-2.2 2.4c-.7 1.3-.5 1.7-.7 1.7l1.5-.2-1.1.8.7.1.2.2.2-.2c.3 0 .5.4.7.3l.4-.2.2-.4q.2 0 .4 0h.7q.5-.2.9-.7.3-.3.7-.3.4.1 1 .3.3 0 .5-.2l.4-.6.8-.1.4.1h.6l.3.2.2-.4z"/>
      <path d="M544.5 299.7h.6v.2h.2l.3.2h.3l.4.1q.3.1.6-.1t.6.2q.1.2.2 0l.1-.1.3-.1.3-.1.4-.2.4.2h.2l.7-.5q.4-.1.7 0h.3q.1 0 .4 0 0-.1.2-.3l.7.4c.1.1.7.2.6-.2s-.4-.1-.5-.4v-.6l-.3-.4q-.2 0-.4 0l-.2-.6-.3.2q-.2 0-.3-.3c-.3-.3-.4.2-.7.1q-.3-.2-.5-.7t-.5-.4q-.2.3 0 .7h-.5q-.2 0-.3.2-.2.7-.7.6-.2 0-.4 0l-.5.2h-.4l-.4-.4a.1.1 0 0 0-.2 0l-.1-.2q-.2 0-.3.3l-.1.5-.3.4-.4.1c-.2 0-.4.3-.4 0-.2-.4.3-1.1-.2-1q-.1 0-.3.2v.7c-.1.3-.7.8-.6 1 0 .3.4 0 .4 0l.2.4c.2.3.7-.4.7 0m-2.1-2.7v-.2l-.4-.1q-.3.1-.5.4c-.2.4-.2 1-.6 1h-.5v1s-.2 0-.2.2q0 .4.4.2h1l.5-.1q.3 0 .5-.2l.2-.4v-.4q.1-.1.3-.4c.1-.7-.6-.2-.5-.9"/>
    </g>
    <g stroke="#000" stroke-width=".5">
      <path d="M550.8 277.9q-.1 1.5-1.4 1.6-1.2-.1-1.4-1.6.2-1.5 1.4-1.6 1.3.1 1.4 1.6zm-4.5-2q-.1 1.5-1.4 1.6c-1.3.1-1.4-.7-1.4-1.6q.2-1.6 1.4-1.6c1.2 0 1.4.7 1.4 1.6z"/>
      <path d="M548.7 276.5q-.1 1.6-1.4 1.6-1.3-.1-1.4-1.6.1-1.5 1.4-1.6 1.3.1 1.4 1.6z"/>
      <path d="M546.4 278q-.1 1.5-1.4 1.6-1.3-.1-1.4-1.6.1-1.5 1.4-1.6 1.3.1 1.4 1.6z"/>
      <path d="M548.5 279.3q-.1 1.4-1.4 1.6-1.2-.1-1.4-1.6.2-1.6 1.4-1.7 1.3.1 1.4 1.6z"/>
    </g>
    <path fill="#00a651" stroke="#000" stroke-width=".5" d="M549.2 261.5s13.9-19.4 28.8.7c0 0 .1 2-1.3 4.2l-.3-1.7-1 .3-.2-1-1.6-.1.5-2.2-1.7 1.4.2-1.5-2 2 .3-4.3-2.2 3.7.3-2.5-.8 1.1-.4-1.5-.7 1.5-1-.7v1l-1.8-1.5-.6 2-.9-2.2-.2 1.5-.9-1.7-.1 1.9-2.9-1.3.6 1.8-1.3-1 .2 1-1.9-.4.2 1.1-2-.4.3 1-2.7-.3 1 1-.3.6s15-5 16 13.8l-2.7 1.3.8-1.5-.8-.5-2.3-1.7.7-2.4-.8.3-.1-1.4-.4.2-.9-1.3-.2.5-.6-1.7-.7 1.2-.3-2.8-1 1.8-.2-1-.3.6-1.3-1.5-.4 1-.5-.8-.3 1-1.4-1.4v1l-1-.7-.3.5-2.1-1.1-.1 1-1.2-1-.3 1s13.6 7.8 9.4 20.4l-.8 1.6-.2-4.2-1.3 2.2.9-4.9-.9 1-.1-2-1.1 2-.4-2.2-.5.6-.8-3.2-.6 1.3-1-3.6-.8 1.5-.5-3.1-.5 1.9-1.5-2.8-.2 1.1-.9-2.2-.5.7s-2.5-.1-3.3-.7-2.8 3.7-2.8 3.7l.2-2.6-.9 1.8v-1.8l-1.6 5.3-.4-3.8-.8 3.3-.4-1-.3 1.3-.5-.5-.4 1.5-.8-.6v2l-.8-1-.6 3-.4-1.2v1.3l-.6-.7-.6 3-1-1.3v2.2l.3 1.6-1-.5.4 2.6s-3.9-7.2.8-14.2c4.6-7 10.9-9 10.9-9l-.7-.6v-.6l-3.8 1.9v-1.1l-1 .8-.2-1.2-.6 1.1-.1-.5-1 1.4-.4-2-.6 2.4-.6-1.7-1.3 3.5V270l-1 2.8-.4-3-.7 3.4v-3l-1.2 3-.7-3-.5 3-.8-2.3-.7 3.4-1.2-3-.6 4.5-.7-1.8-.2 3.3-.8-2 .8 4.2-1-1.6.3 2.6-1.6-2.9v3.4l-.8-1.1-.4 1.3s-.3-13 8.6-15.6 14.6.8 14.6.8l-3.4-2.8.4-.9h-1.2l.5-1-2.7.1.8-1-2 .3v-.6l-1.3 1 .5-1.2-1.7 1.2-.1-1.7-1 1.4-.4-1.5-4 4 1-4.1-.7.9-.1-1-1.1 1.8-.3-1.2-.5 1.5-.4-1.8-.8 1.8-1-1.6-.3 2.1-.6-1.1-.8 1.6-1-1v1l-2-.9.4 1.5-1.5-1.2-.4 2-.8-1-.7 2.5-.6-2.4-.6 1.9s7.8-20.2 27.6-7c0 0 2.2 2.1 2.7 3.6s.1.2.1.2l-.4-13.9.8 6 .5-2-.1 3 2-4.3s-2.4 7.2-1.5 9.9c0 0 .9-8.4 3.9-9.4l-2.8 6 .9-.1-.6 1.2h.7l-.9 2-.5 1 .5 1z"/>
    <path d="m547.1 269.6.4.4s1.3-1.4 3.4.4l.3-.4c-2.5-2.1-4-.4-4-.4zm-.6-6.8v.5l.9-.4-.7 1.2 1.5-.5-1.8 2.3.4.3 2.9-3.7-1.8.6.8-1.3-1.6.6.3-1.9h-.5z"/>
    <path d="m543.9 263 .6 1.3-1-.4 2.9 5.2.4-.5-.6 1.5.5.2 1.2-3.2-.4-.3-1 1.3-1.8-3.1.8.3-.8-1.7 1.1.6v-1.9h-.5v1l-1.8-1.1zm-1.9 6.4.2.5q1.2-.5 2-.2.7.6.7 1l.5-.2s-.2-.9-1-1.2q-.9-.5-2.4.1m2.3 5.4-.5-2.8h.6l.4 2.7zm3.8-.4-.7-2.2.5-.1.7 2zm1.4 1.5-.5-2.1.5-.1.6 2.1z"/>
    <path fill="#00a651" stroke="#000" stroke-width=".5" d="M442.6 340.2s-2.4-1-3.5-.2c-1 .7-.9 1.9-1.8 1.8 0 0 3.6.8 4.3-.1l1-1.2m.4.7s-1.6 2-1 3.3c.5 1.2 1.7 1.3 1.4 2.2 0 0 1.5-3.3.8-4.3s-1-1.1-1-1.1m-2.8-5.8s-2.5.8-2.8 2c-.2 1.4.6 2.1-.1 2.7 0 0 3.2-1.8 3.1-3v-1.5m1.2.7s1.2-2.3.5-3.4c-.8-1.2-2-1-1.8-2 0 0-1 3.5 0 4.4l1.1 1m-2.2-.9s0-2.6-1-3.2c-1.2-.7-2.2-.1-2.5-1 0 0 .7 3.6 1.8 4l1.5.3m4.4 4.2s2.7-1 3 2-.2 2-.2 2-1.4-3.2-3-3.7z"/>
    <path d="m443 341.3.2 2.2h.4l-.3-2.2 1-4.9h-.4l-1 4.9z"/>
    <path d="m440.5 340.6-.1.3c1.3.5 3-1 3.1-1l-.2-.3s-1.7 1.3-2.8 1m3.4-2.9-6-3 .2-.5 6 3z"/>
    <path d="m439.5 337-.4-.4 1.2-1.2.4.4zm2.1-.6-1.3-2.8.5-.2 1.3 2.8zm1.8 3.4v.6c1.7-.1 2 1 2 1l.6-.2c0-.3-.7-1.5-2.6-1.4"/>
    <path fill="#fff" stroke="#000" stroke-width=".7" d="M471.2 341c2-1 2.4-5 2.4-5-.5 1.4-4.2 2.9-4.2 2.9 2.7-1.7 6-9.4 6-9.4-.8 2.7-8 5-12.6 7.6s-2.2 10-2.2 10c-1.3-.9-3.8-4.8-4.3-8.3s-1.8-4.9-5-5.3c-3.1-.4-5 3.2-5 3.2l-4.7 2.4 4.8.2s3.4 1.1 3.4 3.8-3 13.3 2 19.3c3.3 4.1 16 6.5 16 6.5"/>
    <path fill="#fff" stroke="#000" stroke-width=".7" d="M461.9 349.3s1-4.8 4.1-4.6 4-3.6 5.9-4.1c1.9-.6 11.5-3.2 12.5-7.8 0 0-.9 7.6-9.7 11.4 0 0 7.1-2.3 8-3.9 0 0-3.2 6.8-10.9 7.9 0 0 7.2-.6 8.2-2.5 0 0-3.2 4.2-8.5 4.8 0 0 5 2 6.2.3 0 0-2.7 3.2-6 3.4l1 .2s-3.2 3.8-6.7 1.3-3.6.6-3.6.6"/>
    <path fill="#fff" stroke="#000" stroke-width=".7" d="M469 356.5s4.1 6.8 4.5 10.4c0 0 7.8 8.5 10.7 9 0 0-1.4.6-4-1.5 0 0 2.2 2.2 2.6 2.3s-1.7-.2-2-.8l1.4 1.5-.5-.2s-1-.1-1.6-.5c-.5-.4-.1 1-.1 1s-1.2-.3-1.6-.7.1.9.1.9l-1-.3-.8.5s0 .5-.5 0c-.5-.3-1.4 0-1.4 0s-.6.6-1 .2c-.3-.4-1.5 1.6-1.5 1.6l-5-12.3"/>
    <path d="m473.9 378.7-6.4-12.2.6-.4 6.4 12.3zm5.6-.8-11-12.3.6-.5 11 12.3zm2.5-1L469.5 365l.5-.5 12.5 11.7z"/>
    <g transform="translate(-96.9 97.5)scale(.66486)">
      <path d="M823.4 360.8s-1.2-2.2-2.3-1.3q-1.5 1.1-1.8.9s1 0 1.7-.5q1-1 2.4 1zm-6.6-1 .7 1.4-.8 2.3.6.2.7-2.5-.7-1.6z"/>
      <path d="M823.2 360.5s-1 1-2.2.8l-1.3-.3h1.8c.7 0 1.6-.3 1.7-.5"/>
      <path d="M822.9 360.7s-1.2-1.2-2-.8c0 0 1.4-.5 2.2.7z"/>
      <path d="M822.7 360.5s-1.3.9-2.7 0l-.1-.2h.2s1.7.7 2.6.2"/>
      <circle cx="821.6" cy="360.3" r=".4"/>
    </g>
    <path d="M450 359.6s-.7 1.2-.3 2c.3.7 2 1 2.1 2s.8 1 1.5 1l.9-.3s-3.1-1.6-4-4.3z"/>
    <g fill="#964b36" stroke="#000" stroke-width=".5">
      <path stroke-width=".3" d="M549.4 334.8s5.6-7.4 10.6-5.5 8.1 3 8.1 3 .1 4.9-2.5 4.9-5.2-5-7.6-3.5a13 13 0 0 0-4.5 4.2c-.1.7-6.3.8-4.1-3.1z"/>
      <path d="M528.2 370.4s-1.6 1.6-.9 2 2.1 0 2.1-.6-1-1.6-1.2-1.4z"/>
      <path d="M527 372s-3-1.7-5.2 2.2c-2.3 3.8-4.1 10.1-5.4 11-1.3.8 12.8-6.2 13-9.2 0 0 .9-3.8-.6-3.7s-1.6.2-1.9-.4z"/>
      <path stroke-width=".3" d="M527.3 372.4s-3 .7-3.6 4.9-4.7 6.3-5 6.5m49.4-51.6s-4.4 1.6-3.7 4.7"/>
    </g>
    <path fill="#fff200" stroke="#000" stroke-width=".3" d="M533.7 341.3s.2-10.6 8.9-10.2c1.6.2.8 2.1.8 2.1s2-1.3 2.8.8c0 0 2.7-1.2 3 1.5 0 0 3-.4 2.6 2 0 0 2-.5 2 1.2 0 0 2.3-.9 2 1.5 0 0 2.6-1.7 2.3 1.4 0 0 2.6-1.9 3.5 1.2 1 3.2-2.6 9.8-6.1 11.5"/>
    <path d="M557.9 342s1.1 8.2-3.5 11.3l.1.2c4.9-3 3.7-11.5 3.7-11.6h-.3zm-5.7 9 .2.2c3-2.9 3.7-10.6 3.7-11h-.3s-.7 8-3.6 10.8m-2.7-1.9h.3a26 26 0 0 1 4.1-10.3l-.2-.1s-3.8 5.5-4.2 10.4m-2.2-1.4h.3c.5-5.7 4.4-10 4.4-10.1l-.2-.2s-4 4.5-4.5 10.3m-3-2h.3c.3-6.7 4.8-10 4.8-10l-.2-.3s-4.6 3.4-5 10.4zm-2.8-1.6h.3c-.2-6.2 4.5-10 4.6-10l-.2-.2s-5 3.8-4.7 10.2m-5-2.3h.3a10 10 0 0 1 6.8-8.4v-.3a11 11 0 0 0-7.1 8.7"/>
    <path fill="#00a651" stroke="#000" stroke-width=".3" d="M528.6 354.2s-1.5-9.9 4.4-13c0 0 1.1-.2 1.7 1.2 0 0 3.1-1.3 3.2 1.3 0 0 1.6-1.2 2 .5 0 0 3.3-.7 2.7 1.8 0 0 2.8-.8 2.5 1.6 0 0 2.8-1 2.4 1 0 0 3-.6 2.2 1.8 0 0 3.7-.4 2.6 2.1 0 0 2.7-.7 2 1.4 0 0 3.6.7 2 3a24 24 0 0 1-9.8 7"/>
    <path fill="#00a651" stroke="#000" stroke-width=".3" d="M525.4 364.1s-2.4-8.2 2.2-10.3c0 0 .9-.2 1 .6 0 0 1-1.3 1.8-.1 0 0 2.3-1.1 2.9.6 0 0 1.5-1.3 2.3.6 0 0 1.5-.6 1.5 1 0 0 2-1 2 1 0 0 2-.8 1.5 1.2 0 0 3 .5 2.1 1.9 0 0 2.7.7 1.7 1.8 0 0 2.8-.3 1.3 1.6 0 0 2.2-.7 1 1.7s-5.2 5-8 5.4"/>
    <path fill="#00a651" stroke="#000" stroke-width=".3" d="M528.3 370.6s-5.1-5-2.7-6.4c0 0 1 .3 1.5 1.4 0 0 1.2-1.8 2 0 0 0 1.8-.6 1.8.7l1.4 1s1.7-.1 1.4 1c0 0 1.9-.3 1.8.7 0 0 1.6.1 1.5 1.2 0 0 2.8.5 1.5 1.9 0 0-4.8 1-8.3-.4 0 0-1.7-.6-1.9-1.1z"/>
    <path d="M545.9 362.4v.3a36 36 0 0 0 8.6-8.7l-.3-.2c0 .1-5.4 7.5-8.3 8.6m-1.8-1.3.2.3c2.6-1.5 7.9-8.5 8-8.8l-.1-.2c-.1.1-5.5 7.2-8 8.7zm-1.5-.6.2.2a48 48 0 0 0 7-10.3l-.2-.1s-4.2 7.9-7 10.2m-1.3-1.8h.3c.5-3.8 6-9.9 6-10l-.3-.1c-.2.2-5.5 6.2-6 10.1m-10.9-4.7h.3c-.4-5.5 4.1-11.5 4.2-11.5l-.3-.2s-4.7 6.2-4.2 11.7m2.9.5h.3c-.8-4.4 4.4-10.6 4.4-10.7l-.2-.2c-.2.3-5.3 6.4-4.5 10.9m4.4 1.6h.3c-.2-5 4.6-10 4.7-10l-.2-.3c0 .1-5 5.2-4.8 10.3m-10.5 9h.3c-1.8-4.7 1.2-10.6 1.3-10.6l-.3-.2s-3.1 6.1-1.3 10.9zm2 .4.3-.1c-1.6-4.7 1-11 1-11l-.2-.2s-2.7 6.5-1.1 11.3m8.3 4.7v.2c5-1.7 8.3-6.3 8.3-6.3l-.3-.2s-3.2 4.5-8 6.3m-1-1.1v.3c4-1.8 7.7-6.8 7.7-6.8l-.2-.2s-3.7 5-7.5 6.7m-1-.4.2.3c3-2.3 7-8 7-8l-.2-.2s-4 5.7-7 7.9m-5-2.9h.4a21 21 0 0 1 2.5-10.9l-.3-.1s-3.2 6-2.5 11zm2.2 1.4.2.2c3.2-2.9 4.3-10.6 4.3-11h-.3s-1 8-4.2 10.8m2.2.8.2.3a17 17 0 0 0 5.7-9.5h-.3s-1.2 6-5.6 9.3zm.5-13.4v.9l-3.4 11 .3.1 3.4-11c-.5-5.4 4.2-11.3 4.3-11.3l-.3-.2s-4.3 5.3-4.3 10.5"/>
    <path d="M539 357.3c0 .2-1.1 7.7-5.2 10.5l.2.3c4.2-2.9 5.2-10.3 5.2-10.7 1.8-2.1 6-9.7 6-9.7l-.2-.2s-4.2 7.6-6 9.8m-12 8.3c0 .1.6 4 1.4 5.2l.3-.1c-.8-1.3-1.5-5.1-1.5-5.2l-.3.1zm1.9 0-.1 5.3h.3v-5.3z"/>
    <path d="m529 371 .3.1c1.3-2.8 1.7-4.8 1.7-4.8h-.3s-.4 1.9-1.7 4.7m.3.1.2.3a7 7 0 0 0 3-4h-.3s-.6 2.4-2.9 3.7m.5.2v.3c2.4-.2 4-3.1 4-3.3h-.2s-1.6 2.8-3.8 3"/>
    <path d="M530 371.5v.3c3.9-.3 5.6-2.6 5.6-2.7l-.2-.1s-1.7 2.2-5.4 2.5"/>
    <path d="M530.3 371.5v.3c.1 0 5 1.1 6.7-1.4l-.3-.2c-1.5 2.4-6.4 1.4-6.4 1.3"/>
    <path fill="none" stroke="#000" stroke-width="2.8" d="M420.9 193.2v136.4c0 44.6 80.6 71 80.6 71s80.5-26.4 80.5-71V193.2z"/>
  </g>
  <path fill="#012169" d="M0 0h320v240H0z"/>
  <path fill="#FFF" d="m37.5 0 122 90.5L281 0h39v31l-120 89.5 120 89V240h-40l-120-89.5L40.5 240H0v-30l119.5-89L0 32V0z"/>
  <path fill="#C8102E" d="M212 140.5 320 220v20l-135.5-99.5zm-92 10 3 17.5-96 72H0zM320 0v1.5l-124.5 94 1-22L295 0zM0 0l119.5 88h-30L0 21z"/>
  <path fill="#FFF" d="M120.5 0v240h80V0zM0 80v80h320V80z"/>
  <path fill="#C8102E" d="M0 96.5v48h320v-48zM136.5 0v240h48V0z"/>
</svg></g><rect width="5.671875" height="27" transform="translate(151.5625, 618)" fill="rgb(255,160,37)" style="fill: rgb(255, 160, 37);"/><text transform="translate(162.234375, 624)"><tspan fill="rgb(255,255,255)" x="0" y="12" style="font-family: Roboto; font-weight: 700; font-stretch: 100%; font-size: 12px;">2</tspan></text><text transform="translate(13, 655.296875)"><tspan fill="rgb(255,255,255)" x="20.184375" y="12" style="font-family: Roboto; font-weight: 400; font-stretch: 100%; font-size: 12px;">Zambia</tspan></text><g id="image"><svg xmlns="http://www.w3.org/2000/svg" id="flag-icons-zm" viewBox="0 0 640 480" width="16" height="12" x="13" y="655">
  <defs>
    <clipPath id="zm-a">
      <path fill-opacity=".7" d="M-170.7 0H512v512h-682.7z"/>
    </clipPath>
  </defs>
  <g fill-rule="evenodd" clip-path="url(#zm-a)" transform="translate(160)scale(.9375)">
    <path fill="#198a00" d="M-256 0h768v512h-768z"/>
    <path fill="#ef7d00" d="M421.9 184H512v328h-90.1z"/>
    <path fill="#000001" d="M331.9 183.8h90v328h-90z"/>
    <path fill="#de2010" d="M240 184h91.9v328h-92z"/>
    <g fill="#ef7d00" stroke="#000">
      <path stroke-linejoin="round" d="M451.6 65.6s34-14.5 37.2-17.5c1.5 1.8-13.6 20-42.9 26.7 26.6-6.2 49.3-26 54-25.4 1.3.3 1 19.3-60 35.8 42.2-11 66.7-31.4 66.4-29.2.3.5-4.2 16-41.1 28.1 10.3-2.4 38.3-19.4 38-16.1.9 1.3-27 37.2-77.6 25.5 40.4 10.5 66.5-14.8 70.2-14.3.8.1-7.4 22-58.2 23.4 24.3-2.5 17.3-.1 17.3-.1s-14.3 11.2-31.7 3.6c13.6 3.7 15.1 3.9 15.4 5-.9 1.6-12 3.8-22.9-2 8.7 3.6 16.5 4.2 16.6 5.5-.1.4-5.6 3.6-10.6 1.3s-50.3-30.1-50.3-30.1l77.4-21.3 2.8 1zm-91 75.6c-6.8 0-7 6-7 6s-.5.5-.2 3.4l1.7-2.6c.8.1 3.9 1 8.8-2.8-4.5 4.7-1.8 6.4-1.8 6.4s-1 3.7 2.4 4.4c-1-1.5-.4-2.8-.4-2.8s4.8-.5 4.5-6.3c.1 5.3 3 6.6 3 6.6s0 2.9 3.1 3.2c-1.6-1.5-1.3-3.8-1.3-3.8s4-3 .7-8c2-1.2 3.7-4.5 3.7-4.5s-2.8-1.2-4.1-2.2c-.6-1.3 0-8.5 0-8.5l-1.8-9.3-4.8 14.5c.2-2 .3 6.3-6.5 6.3z"/>
      <path stroke-linejoin="round" d="M394.2 120.3c.2.1 5.1 5.6 9.9 5.3 1.8-1.5-3.7-4.7-3.7-5.5 2 1.8 10.1 8.8 15.4 6.3 2-3-3.8-2.5-10.2-10.6 4.5 3 15.7 9.5 21 7 2.1-2.4-11.7-9.9-16.4-15.7l-12-6.1-16.2 13.3 12.3 6z"/>
      <path stroke-linecap="round" stroke-linejoin="round" d="M375.9 74.8s5.5-3.2 27.6-1.6c2.4.3 15-4.3 19.1-5.7 6.4-1.2 27-5.6 32.4-9.8 4-.5-1 7.1-6 9-5.2 2.3-24.1 8.9-30.9 8 8.1.1 3.6 6.7-9.8 3.6 6.4 3.6 4 4.2 4 4.2s-11.3.6-14.3-2c7.6 2.9 4.4 4 4.4 4s-7.7.7-11.3-1c5.5 1.7 2.7 2.7 2.7 2.7s-4.5.8-8.2-.6c-3.8-1.3-9.4-10.7-9.7-10.7z"/>
      <path stroke-linejoin="round" d="m384.7 123.4.8 14.6-.8 1.2c-.3.4-10.3-1.6-9 6 0 3.2 0 4 2.2 5.7-.5-2-.4-3.5-.4-3.5s2.9 1.7 5.6-3c-1.9 4.6-.6 6.3-.1 6.4.4.8-.8 4.5 3 4.4-1.5-1.4-.8-3.4-.8-3.4s4-.6 2.6-7.7c1.4-1.4 2 0 2 0s.4 4.2 3.9 3.3c1.5.9-.3 3.2-.3 3.2s2.5 0 3.3-2c.7-2.2 1.6-6-2.5-7.6-.5-1.5 1.6-1.6 1.6-1.6s2.6.9 3.4 2.2.5-3.4-2.8-4c-4 0-4.2-.9-4.2-1l-1-13.7z"/>
      <path stroke-linecap="round" stroke-linejoin="round" stroke-width="1.1" d="M398.6 135.8c0-.7-6.8-9.9-5-11 1.7.3 4.5 4.5 6.9 3.1-.7-1.6-2.8-.7-5.1-4.9-2.4-4.8-2.7-11.9-11-19.6 5.4 8.2 17.4 13 18 10.6s-10.7-11.4-10.1-13.6c2.2 4.4 13.4 14.4 21.6 13.6.6-2-6.7-5.8-8.6-9.4-5.3-3.6-19.4-15.7-19.6-18.5a33 33 0 0 0-9.9-10.6l-.8-1.7c-3.2-7.5 1-10 3.5-10.3 2-.3 2.6 0 4-.7l-5.1-2c2.3 1.7 8 .2 6.8 5 2.5-1 7.9-7.4-6.1-8.8-4.6-5.2-23.3-8.2-28 14.6.4.3.6.6 1.8 1.4-6-2.8-21.9-5-27.6-6-15.6-4.4-31.7-15.2-33.2-13.9-2 1 9.4 11.6 8.8 11.8a263 263 0 0 0-27.5-13.6c-6-2.2-11.9-7.4-12.5-6.4-2.2 4.5 9.5 15.9 11.7 17.2s19.3 9.3 19 9.4c-25.8-11.7-30-13.9-31.4-15.2-2.3-.5-7.8-8-9.3-7.5-.9.8.8 12.6 13.1 18 2 1.4 26.4 10.1 26.2 10.8 0 .2-28-11.5-29-12-5.4-2-12-9.4-13.2-8.6s3 8.8 8.4 11.3c2.9 1.2 13.8 6.6 23.6 10 .6.3-17.7-6.9-26.5-10.5-4-2.2-5.8-5-6.4-4.4-1 .6 1.4 12.4 29.7 19 .7.4 10-2.1 9.5-1.8a113 113 0 0 1-15.8 2.8c-.3.8 1.8 5 16.4 4.2 1.8-.1 12-3.7 11.1-3a174 174 0 0 1-14.8 4.9c-.9 0-5.6.6-5.8 1-.2.8 3.5 3.8 11.3 4.2 7 .4 20.2-4.2 20-3.9-.4.3-12.8 4.6-13.1 4.8-.5.3-5 .5-5.2.9-.4.9 6.6 7.4 27.1.4-2 2.8-12 4.7-12 5.2s2.2 2.5 5.7 3.3c1.7.4 4.1.3 6.3 0 4-.8 8-2.3 13.3-7.2.6 1.5-13.1 8.5-12.5 9.1 3 2.8 12.9-.3 13.5-.7.7-.3 19-10.7 19-12 .3 1.6-23.7 14.7-23.4 15.2 1.5 2.4 9.7-.1 10-.4l10.8-5.8c.3-.1-11.8 7-10.8 8.2-.5 4.7 19-3.2 20.5-4.2.7-.5-9.4 4.4-9.4 6.7 3.3 5.5 13.7 3.8 15.3 2.6.8-.6-1 4-.4 3.6a16 16 0 0 0 3-4.3c-.2 1.6-1.4 4-2 6.8s-.9 5.9-1.8 9.2c-.2 1.4 6.4-2.9 5.4-13.2.6 5.4-2 15.4-1.3 16 1.3 1 5.2-5 5.6-9.1 1.1 2 3.5 6.3 5.6 7.3-.2-3.1 0-3-1-6q.8-6.3.8-16.1c5.6 10.7 7.9 15.3 6.3 23.5 1.7.7 4.3-5.8 4.1-9a13 13 0 0 0 11.5 10.2"/>
      <path stroke-linecap="round" stroke-linejoin="round" stroke-width="1.1" d="M305.4 67.7s-3.9 2.9-8.6 2.7c1.2 4.8 11 1.1 11 1.1s-4.7 5.3-8.1 6.1c2 1.7 10.6 1.1 12 .3s4-4.2 4-4.2-8.8 10.2-10 10.1c-.3 1.2 9.1.8 11-1s7-4.4 7-4.4-13 9-13.5 9c4.8 1.2 14.5-1.6 20.7-5.4-9.2 6.1-10 7.2-14.7 9.3 4.2.9 6.3 3.7 20.3-2.4 8-3.8 12.6-10.8 12.6-10.8a82 82 0 0 1-21.6 18c-.5 1 9.4 5.2 21.9-7.9"/>
      <path stroke-linecap="round" stroke-width="1.1" d="M373.4 96s.9 4 4.3 7 3.6 6 3.6 6m-9.5-39s1.1 3.7 4.6 6c3.6 2.2 9 9.4 9.3 10.7.4 1.5 2.5 12.6 2.3 13.8m-37.8-25c.2 1.5-5 8.3 2.2 16.4-6.6 8-6.6 9-6.6 9s3.7 2 10.2-3.6c10.8 13.2 7.2 19.2 7.2 19.2"/>
      <path stroke-linecap="round" stroke-linejoin="round" stroke-width="1.1" d="M362.3 107.2s-1-1.4.8-6.7c1.6 2 3.4 2.3 4.1 3 .8.9 9 2 9.4 7.5"/>
      <path stroke-width="1.1" d="M371.9 57.5c0-.4-1.7-4-7.8.4 3.3.2 6.5 2.1 7.8-.4z"/>
      <path stroke-linejoin="round" stroke-width="1.1" d="M430.1 73.5c.3.2 18.2 4 24.2 2.1-7.6 10.2-22.9 3.3-22.9 3.3 7.5 2.2 7.8 2 10.2 4.2.8 2-13.8 1-18.5-1.7 13.3 4.2 13.6 4 14 5.5.6 2.3-21.8-.6-23.7-3.5 6 4.6 9.2 5.5 12.5 7.6-4 1.8-11.5 3.6-25.2-6.1 18 16.4 34.3 15.4 36.9 18.3-6.3 9.3-30.7-5.5-41.9-13s24.5 18.1 27.8 17.7c-1.6 2.5-13.4.3-14.2-1"/>
      <path stroke-linecap="round" stroke-width="1.1" d="M434.7 90.7c-2 .3-8.3.3-9.2.1"/>
      <path stroke-linecap="round" stroke-linejoin="round" stroke-width="1.1" d="M300.1 65s13.6 7.2 19.4 6.7a10 10 0 0 1-3.8 2c1.4.6 5.4 2.7 11.4 1.4l-3.3 3s5.2 2 11-1l-2.8 3.7 4.1.3"/>
    </g>
  </g>
</svg></g><rect width="5.671875" height="27" transform="translate(151.5625, 649)" fill="rgb(255,160,37)" style="fill: rgb(255, 160, 37);"/><text transform="translate(162.234375, 655)"><tspan fill="rgb(255,255,255)" x="0" y="12" style="font-family: Roboto; font-weight: 700; font-stretch: 100%; font-size: 12px;">2</tspan></text><text transform="translate(13, 686.296875)"><tspan fill="rgb(255,255,255)" x="20.184375" y="12" style="font-family: Roboto; font-weight: 400; font-stretch: 100%; font-size: 12px;">Norway</tspan></text><g id="image"><svg xmlns="http://www.w3.org/2000/svg" id="flag-icons-no" viewBox="0 0 640 480" width="16" height="12" x="13" y="686">
  <path fill="#ed2939" d="M0 0h640v480H0z"/>
  <path fill="#fff" d="M180 0h120v480H180z"/>
  <path fill="#fff" d="M0 180h640v120H0z"/>
  <path fill="#002664" d="M210 0h60v480h-60z"/>
  <path fill="#002664" d="M0 210h640v60H0z"/>
</svg></g><rect width="5.671875" height="27" transform="translate(151.5625, 680)" fill="rgb(255,160,37)" style="fill: rgb(255, 160, 37);"/><text transform="translate(162.234375, 686)"><tspan fill="rgb(255,255,255)" x="0" y="12" style="font-family: Roboto; font-weight: 700; font-stretch: 100%; font-size: 12px;">2</tspan></text><text transform="translate(13, 717.296875)"><tspan fill="rgb(255,255,255)" x="20.184375" y="12" style="font-family: Roboto; font-weight: 400; font-stretch: 100%; font-size: 12px;">South Africa</tspan></text><g id="image"><svg xmlns="http://www.w3.org/2000/svg" id="flag-icons-za" viewBox="0 0 640 480" width="16" height="12" x="13" y="717">
  <defs>
    <clipPath id="za-a">
      <path fill-opacity=".7" d="M-71.9 0h682.7v512H-71.9z"/>
    </clipPath>
  </defs>
  <g clip-path="url(#za-a)" transform="translate(67.4)scale(.93748)">
    <g fill-rule="evenodd" stroke-width="1pt">
      <path fill="#000001" d="M-71.9 407.8V104.4L154 256.1z"/>
      <path fill="#000c8a" d="m82.2 512.1 253.6-170.6H696V512H82.2z"/>
      <path fill="#e1392d" d="M66 0h630v170.8H335.7S69.3-1.7 66 0"/>
      <path fill="#ffb915" d="M-71.9 64v40.4L154 256-72 407.8v40.3l284.5-192z"/>
      <path fill="#007847" d="M-71.9 64V0h95l301.2 204h371.8v104.2H324.3L23 512h-94.9v-63.9l284.4-192L-71.8 64z"/>
      <path fill="#fff" d="M23 0h59.2l253.6 170.7H696V204H324.3zm0 512.1h59.2l253.6-170.6H696v-33.2H324.3L23 512z"/>
    </g>
  </g>
</svg></g><rect width="5.671875" height="27" transform="translate(151.5625, 711)" fill="rgb(255,160,37)" style="fill: rgb(255, 160, 37);"/><text transform="translate(162.234375, 717)"><tspan fill="rgb(255,255,255)" x="0" y="12" style="font-family: Roboto; font-weight: 700; font-stretch: 100%; font-size: 12px;">2</tspan></text><text transform="translate(13, 748.296875)"><tspan fill="rgb(255,255,255)" x="20.184375" y="12" style="font-family: Roboto; font-weight: 400; font-stretch: 100%; font-size: 12px;">Suriname</tspan></text><g id="image"><svg xmlns="http://www.w3.org/2000/svg" id="flag-icons-sr" viewBox="0 0 640 480" width="16" height="12" x="13" y="748">
  <path fill="#377e3f" d="M.1 0h640v480H.1z"/>
  <path fill="#fff" d="M.1 96h640v288H.1z"/>
  <path fill="#b40a2d" d="M.1 144h640v192H.1z"/>
  <path fill="#ecc81d" d="m320 153.2 56.4 173.6-147.7-107.3h182.6L263.6 326.8z"/>
</svg></g><rect width="5.671875" height="27" transform="translate(151.5625, 742)" fill="rgb(255,160,37)" style="fill: rgb(255, 160, 37);"/><text transform="translate(162.234375, 748)"><tspan fill="rgb(255,255,255)" x="0" y="12" style="font-family: Roboto; font-weight: 700; font-stretch: 100%; font-size: 12px;">2</tspan></text><text transform="translate(13, 779.296875)"><tspan fill="rgb(255,255,255)" x="20.184375" y="12" style="font-family: Roboto; font-weight: 400; font-stretch: 100%; font-size: 12px;">Indonesia</tspan></text><g id="image"><svg xmlns="http://www.w3.org/2000/svg" id="flag-icons-id" viewBox="0 0 640 480" width="16" height="12" x="13" y="779">
  <path fill="#e70011" d="M0 0h640v240H0Z"/>
  <path fill="#fff" d="M0 240h640v240H0Z"/>
</svg></g><rect width="5.671875" height="27" transform="translate(151.5625, 773)" fill="rgb(255,160,37)" style="fill: rgb(255, 160, 37);"/><text transform="translate(162.234375, 779)"><tspan fill="rgb(255,255,255)" x="0" y="12" style="font-family: Roboto; font-weight: 700; font-stretch: 100%; font-size: 12px;">2</tspan></text><text transform="translate(13, 810.296875)"><tspan fill="rgb(255,255,255)" x="20.184375" y="12" style="font-family: Roboto; font-weight: 400; font-stretch: 100%; font-size: 12px;">Denmark</tspan></text><g id="image"><svg xmlns="http://www.w3.org/2000/svg" id="flag-icons-dk" viewBox="0 0 640 480" width="16" height="12" x="13" y="810">
  <path fill="#c8102e" d="M0 0h640.1v480H0z"/>
  <path fill="#fff" d="M205.7 0h68.6v480h-68.6z"/>
  <path fill="#fff" d="M0 205.7h640.1v68.6H0z"/>
</svg></g><rect width="2.84375" height="27" transform="translate(151.5625, 804)" fill="rgb(255,160,37)" style="fill: rgb(255, 160, 37);"/><text transform="translate(159.40625, 810)"><tspan fill="rgb(255,255,255)" x="0" y="12" style="font-family: Roboto; font-weight: 700; font-stretch: 100%; font-size: 12px;">1</tspan></text><text transform="translate(13, 841.296875)"><tspan fill="rgb(255,255,255)" x="19.95" y="12" style="font-family: Roboto; font-weight: 400; font-stretch: 100%; font-size: 12px;">Taiwan</tspan></text><g id="image"><svg xmlns="http://www.w3.org/2000/svg" id="flag-icons-tw" viewBox="0 0 640 480" width="16" height="12" x="13" y="841">
  <clipPath id="tw-a">
    <path d="M0 0h640v480H0z"/>
  </clipPath>
  <g clip-path="url(#tw-a)">
    <path fill="red" d="M0 0h720v480H0z"/>
    <path fill="#000095" d="M0 0h360v240H0z"/>
    <g fill="#fff">
      <path d="m154 126.9-2.5 9.6 9.4 2.6-1.8-7.1zm46.9 5.1-1.8 7.1 9.4-2.6-2.5-9.6zm-41.8-24-5.1 5.1 1.9 6.9z"/>
      <path d="m155.9 120-1.9 6.9 5.1 5.1z"/>
      <path d="m154 113.1-6.9 6.9 6.9 6.9 1.9-6.9zm14 27.8 5.1 5.1 6.9-1.9zm18.9 5.1 9.6 2.5 2.6-9.4-7.1 1.8z"/>
      <path d="m192 140.9 7.1-1.8 1.8-7.1zm-31.1-1.8 2.6 9.4 9.6-2.5-5.1-5.1zm19.1 5 6.9 1.9 5.1-5.1z"/>
      <path d="m173.1 146 6.9 6.9 6.9-6.9-6.9-1.9zm-12.2-45.1-9.4 2.6 2.5 9.6 5.1-5.1zm-1.8 31.1 1.8 7.1 7.1 1.8zm45-12 1.9-6.9-5.1-5.1z"/>
      <path d="m168 99.1-7.1 1.8-1.8 7.1zm32.9 8.9-1.8-7.1-7.1-1.8zm5.1 18.9 6.9-6.9-6.9-6.9-1.9 6.9z"/>
      <path d="m200.9 108-8.9-8.9-12-3.2-12 3.2-8.9 8.9-3.2 12 3.2 12 8.9 8.9 12 3.2 12-3.2 8.9-8.9 3.2-12z"/>
      <path d="m200.9 132 5.1-5.1-1.9-6.9zm5.1-18.9 2.5-9.6-9.4-2.6 1.8 7.1zm-6.9-12.2-2.6-9.4-9.6 2.5 5.1 5.1zm-26-6.9-9.6-2.5-2.6 9.4 7.1-1.8zm6.9 1.9-6.9-1.9-5.1 5.1z"/>
      <path d="m186.9 94-6.9-6.9-6.9 6.9 6.9 1.9z"/>
      <path d="m192 99.1-5.1-5.1-6.9 1.9zM173.1 146l-9.6 2.5 4.5 16.6 12-12.2zm-5.1 19.1 12 44.9 12-44.9-12-12.2zm-7.1-26-9.4-2.6-4.4 16.4 16.4-4.4z"/>
      <path d="m147.1 152.9-12 45.1 32.9-32.9-4.5-16.6zm-12-20.9L102 165.1l45.1-12.2 4.4-16.4z"/>
      <path d="m154 126.9-6.9-6.9-12 12 16.4 4.5zm0-13.8-2.5-9.6-16.4 4.5 12 12z"/>
      <path d="M135.1 108 90 120l45.1 12 12-12zm90 24-16.6 4.5 4.4 16.4 45.1 12.2z"/>
      <path d="m199.1 139.1-2.6 9.4 16.4 4.4-4.4-16.4zm-12.2 6.9-6.9 6.9 12 12.2 4.5-16.6zm19.1-19.1 2.5 9.6 16.6-4.5-12.2-12z"/>
      <path d="m192 165.1 33.1 32.9-12.2-45.1-16.4-4.4zm7.1-64.2 9.4 2.6 4.4-16.4-16.4 4.4z"/>
      <path d="M225.1 108 258 75.1l-45.1 12-4.4 16.4zm-12.2-20.9L225.1 42 192 75.1l4.5 16.4zm12.2 44.9 44.9-12-44.9-12-12.2 12z"/>
      <path d="m206 113.1 6.9 6.9 12.2-12-16.6-4.5zm-38-38L135.1 42l12 45.1 16.4 4.4z"/>
      <path d="m160.9 100.9 2.6-9.4-16.4-4.4 4.4 16.4z"/>
      <path d="m147.1 87.1-45.1-12 33.1 32.9 16.4-4.5zm39.8 6.9 9.6-2.5-4.5-16.4-12 12z"/>
      <path d="M192 75.1 180 30l-12 45.1 12 12z"/>
      <path d="m173.1 94 6.9-6.9-12-12-4.5 16.4z"/>
    </g>
    <circle cx="180" cy="120" r="51.1" fill="#000095"/>
    <circle cx="180" cy="120" r="45.1" fill="#fff"/>
  </g>
</svg></g><rect width="2.84375" height="27" transform="translate(151.5625, 835)" fill="rgb(255,160,37)" style="fill: rgb(255, 160, 37);"/><text transform="translate(159.40625, 841)"><tspan fill="rgb(255,255,255)" x="0" y="12" style="font-family: Roboto; font-weight: 700; font-stretch: 100%; font-size: 12px;">1</tspan></text><text transform="translate(13, 872.296875)"><tspan fill="rgb(255,255,255)" x="20.184375" y="12" style="font-family: Roboto; font-weight: 400; font-stretch: 100%; font-size: 12px;">Kuwait</tspan></text><g id="image"><svg xmlns="http://www.w3.org/2000/svg" id="flag-icons-kw" viewBox="0 0 640 480" width="16" height="12" x="13" y="872">
  <defs>
    <clipPath id="kw-a">
      <path fill-opacity=".7" d="M0 0h682.7v512H0z"/>
    </clipPath>
  </defs>
  <g fill-rule="evenodd" stroke-width="1pt" clip-path="url(#kw-a)" transform="scale(.9375)">
    <path fill="#fff" d="M0 170.6h1024v170.7H0z"/>
    <path fill="#f31830" d="M0 341.3h1024V512H0z"/>
    <path fill="#00d941" d="M0 0h1024v170.7H0z"/>
    <path fill="#000001" d="M0 0v512l255.4-170.7.6-170.8z"/>
  </g>
</svg></g><rect width="2.84375" height="27" transform="translate(151.5625, 866)" fill="rgb(255,160,37)" style="fill: rgb(255, 160, 37);"/><text transform="translate(159.40625, 872)"><tspan fill="rgb(255,255,255)" x="0" y="12" style="font-family: Roboto; font-weight: 700; font-stretch: 100%; font-size: 12px;">1</tspan></text><text transform="translate(13, 903.296875)"><tspan fill="rgb(255,255,255)" x="20.184375" y="12" style="font-family: Roboto; font-weight: 400; font-stretch: 100%; font-size: 12px;">Cambodia</tspan></text><g id="image"><svg xmlns="http://www.w3.org/2000/svg" xmlns:xlink="http://www.w3.org/1999/xlink" id="flag-icons-kh" viewBox="0 0 640 480" width="16" height="12" x="13" y="903">
  <path fill="#032ea1" d="M0 0h640v480H0z"/>
  <path fill="#e00025" d="M0 120h640v240H0z"/>
  <g fill="#fff" stroke="#000" transform="matrix(1.2 0 0 1.2 85.6 -522)">
    <g stroke-linejoin="bevel">
      <path d="M139 623.5h113.8v43.8H139z"/>
      <path d="M247 647.6h3.5v16.5H247zm-108-8.1h113.8v5H139zm0-7h113.8v4.6H139z"/>
      <path stroke-width=".9" d="M139 625.7h113.8v4.3H139z"/>
      <path d="M169 647.6h3.6v16.5H169zm49 0h3.6v16.5H218zm-78 0h3.5v16.5H140zm7 0h3.5v16.5H147zm7.5 0h3.5v16.5h-3.5zm7.5 0h3.5v16.5H162zm62.8 0h3.6v16.5h-3.6zm7.5 0h3.6v16.5h-3.6zm7.5 0h3.6v16.5h-3.6z"/>
      <path stroke-linejoin="miter" d="M94.5 669.5a9 9 0 0 0 4.4-5.3H292a9 9 0 0 0 4.4 5.3z"/>
    </g>
    <path d="M193 556.8s-.1-4.1 2.3-4.2c2.3 0 2.2 4.2 2.2 4.2zm-12.5 54.5v-5.5c0-2.8-2.8-3-2.8-5 0 0-.4-3 .4-4.4 1.1 4 3 3.3 3 1.6 0-1.4-1-2.8-3.3-6.3-.8-1.1-.3-4.6.7-5.9q.4 4.5 2.2 4.5 1.3.1 1.4-2c0-2-1.3-3-2-4.8a5 5 0 0 1 1.1-5.3c.5 3 .4 4.2 1.7 4.2 2.7-.9 0-4.8-.6-5.8-.6-1.1 1-3.4 1-3.4.8 2.7 1 2.9 2 2.6 1.2-.3 1-2-.4-3.4q-1.3-1.6.2-3.3c1 1.9 2.2 1.8 2.3.6l-.8-4.4H204l-.9 4.3c-.2 1.2 1.4 1.5 2.4-.5 1 1 1.1 2.4.2 3.3-1.4 1.4-1.6 3.1-.4 3.4 1 .3 1.2 0 2-2.6 0 0 1.5 1.5 1 3.4-.6 1-3.3 5-.6 5.8 1.3 0 1.2-1.2 1.7-4.2a5 5 0 0 1 1 5.3c-.6 1.8-2 2.8-2 4.8q.2 2.1 1.5 2 1.8 0 2.2-4.5c1 1.3 1.5 4.8.7 6-2.3 3.4-3.4 4.8-3.4 6.2 0 1.7 2 2.4 3-1.6.9 1.4.5 4.4.5 4.4 0 2-2.7 2.2-2.8 5v5.5zm7.2-46-.4-3.1h15.9l-.4 3.1zm1-3.2-.2-2.5H202l-.3 2.5zm2.3-2.6-.3-2.6h9l-.1 2.6zm33 110c-2-.7-5-2.9-5-5v-24.3l2.6-3.4H169l2.5 3.4v24.3c0 2.1-2 4.3-4 5z"/>
    <path stroke-linejoin="bevel" d="M178.2 647.6h3.6v16.5h-3.6zm30.4 0h3.6v16.5h-3.6z"/>
    <path d="M168 609.2v27.6h54v-27.6a4 4 0 0 0-2.6 2.8v11.8h-48.7V612s-.6-2-2.8-2.8z"/>
    <path d="M214.6 669.5c-1.8-.7-5.6-2.9-5.6-5v-27.2c.4-1.5 2.4-2.4 3.7-3.4H177c1.7 1 3.6 1.7 4.3 3.4v27.2c0 2.1-3 4.3-4.8 5z"/>
    <path d="M219.4 634.2v-19.6h-4.9v-1.9h-38.8v2h-5v19.5zM207 669.5c-1.8-.7-4.3-2.9-4.3-5v-23.2l1.4-2.1h-17.7l1.5 2v23.3c0 2.1-2.6 4.3-4.3 5z"/>
    <path d="M190.7 639.2h9v30.3h-9z"/>
    <path stroke-linejoin="bevel" d="M204.4 632.5c0-2 5.8-2.1 8.8-3.8h-36c3 1.7 8.7 1.8 8.7 3.8l1.2 3.9 15 .6z"/>
    <path d="M211.4 611.3c0-4.9.2-6.7 1.7-6.7V620c-3.7 1.4-6.3 6-6.3 6h-23.2s-2.6-4.6-6.3-6v-15.5c1.8 0 1.8 2 1.8 6.7zm1.7-2c0-5.6 4.9-6.2 4.9-6.2v5c-1.9-.1-2.8 1.6-2.8 4 0 2.5 1.5 2.5 1.5 2.5v14.2h-3.6z"/>
    <path d="M177.3 609.3c0-5.6-4.9-6.2-4.9-6.2v5c1.9-.1 2.8 1.6 2.8 4 0 2.5-1.5 2.5-1.5 2.5v14.2h3.6z"/>
    <g fill="none" stroke-width=".8">
      <path d="M186.8 570.6H204m-19.2 5.4h21m-23 6.5h24.9m-27 7.9h29.5m-30.2 9h30.4"/>
      <path stroke-width="1" d="M170.8 629h48.6m-33.2 0h18v6.6h-18z"/>
    </g>
    <path d="M184 614.2c3 3.6 2.6 9.7 2.6 13.3H204c0-3.6-.4-9.7 2.6-13.3zm9.7-41-2.4-1.3v-3.5c1 .3 2 .4 2.2 2 .3-2.3 1-2.1 1.9-3 1 .9 1.5.7 1.9 3 0-1.6 1.2-1.7 2.1-2v3.5l-2.3 1.2z"/>
    <path d="m193.5 578.9-4-2.8V573c1.5.3 3 .5 3.2 2.2.4-2.5 1.3-3.7 2.7-4.7 1.3 1 2.2 2.2 2.7 4.7.1-1.7 1.7-1.9 3-2.2v3.2l-3.9 2.7z"/>
    <path d="m193.2 587.8-4.5-4v-4.7c1.6.4 3.4.6 3.6 3.1.5-3.5 1.5-5.4 3-6.8 1.6 1.4 2.6 3.3 3.2 6.8.2-2.5 2-2.7 3.6-3.1v4.7l-4.6 4zm8.4 5.3-4 5.7h-4.7l-4.1-5.7zm-15.2 9.5q2.9 1.5 3 7.6H201q.1-6.1 3-7.6z"/>
    <path stroke-linejoin="bevel" d="M204.2 593v-5.6a5 5 0 0 0-3.8 3.3c0-2-2.5-6.3-5.2-8.5-2.7 2.4-5.3 6.4-5.2 8.4q-.8-2.4-3.8-3.2v5.7z"/>
    <path stroke-linejoin="bevel" d="M205 602.6V597q-3.2.9-4.1 3.3c0-2-2.7-6.3-5.7-8.5-3 2.5-5.8 6.4-5.7 8.5q-.8-2.3-4.1-3.3v5.7z"/>
    <path stroke-linejoin="bevel" d="M207.4 614.3v-6.6a10 10 0 0 0-5.1 3.8c0-3.5-4-9-7.1-10.7-3.2 1.8-7.1 7.4-7.1 10.7a10 10 0 0 0-5.2-3.8v6.6z"/>
    <path stroke-linejoin="bevel" d="M206 629v-6.8c-2.4.9-3 3.1-3.8 4.7.3-6.9-3.8-14.2-7-16.1-3.2 1.9-7.4 9.4-7 16-.8-1.4-1.5-3.7-3.8-4.6v6.7z"/>
    <path d="M204.4 639.2v-6.8c-2.5.6-2.6 1.5-3.4 3 .3-4.1-2.6-8.8-5.8-10.6-3.2 1.8-6 6.5-5.8 10.6-.8-1.5-.9-2.4-3.4-3v6.8z"/>
    <g id="kh-a">
      <path d="M99 664.2v-20.4c-.7-2.6-3-5-4.6-5.4v-18l3.7 2 4.3 18.9v23z"/>
      <path d="M99 664.3v-20.5c-.7-2.6-3-5-4.6-5.4v-19.2c2.5 0 3.7 3.2 3.7 3.2l4.3 18.9v22.9z"/>
      <path d="M96.3 669.5c1.7-.7 4.2-2.9 4.2-5v-25.6l-1.2-2H143l-1.7 2v25.6a6 6 0 0 0 3.4 5z"/>
      <path d="M135.8 669.5c-1.7-.7-4.2-2.9-4.2-5v-24.3l3.6-3.4h-29.6l3.6 3.4v24.3c0 2.1-2.5 4.3-4.2 5z"/>
      <path d="M131.7 669.5c-1.7-.7-4.3-2.9-4.3-5v-22l2.4-3.3H111l2.4 3.3v22c0 2.1-2.5 4.3-4.3 5z"/>
      <path d="M116 639.2h8.9v30.4h-9z"/>
      <path stroke-linejoin="bevel" d="M103.7 647.6h3.6v16.5h-3.6zm30.8 0h3.5v16.5h-3.6zm-33.9-27.8h4.4v17h-4.4zm0-3.2h4.3v3.2h-4.3zm35.6 6.9h6.1v13h-6.1z"/>
      <path d="M104.9 636.6v-29c1.2 0 1.4 4.3 4.2 4.3 1.5 0 1.4-1.8.5-3.2-.7-1.3-1.6-3-.4-6.3.9 2.5 3.1 3.3 2.7 1.8-.7-2.7-2.8-3.2-1.2-7.3.5 3.4 2.7 3.3 2.2 1.3-.6-2.3-1.9-3.3-.3-6.5.9 3.7 2 3.5 2 1.2 0-3.4 0-7 4.2-8.3 0 0 .3-3 1.9-3s1.8 3 1.8 3c4.3 1.3 4.2 5 4.2 8.3 0 2.3 1.1 2.5 2-1.2 1.6 3.2.3 4.2-.3 6.5-.5 2 1.7 2.1 2.2-1.3 1.6 4.1-.5 4.6-1.2 7.3-.4 1.5 1.8.7 2.7-1.8 1.2 3.3.3 5-.4 6.3-.8 1.4-1 3.2.5 3.2 2.8 0 3-4.2 4.2-4.2v28.9zM98 614.7v22.1h2.5v-22.1q-1.3-.7-2.5 0z"/>
      <path d="M98.2 629c3.1 1.6 6.2 3.5 7 7.8h-7zm43.2-6.6v14.4h2v-14.4q-1-.5-2 0z"/>
      <path d="M143.4 629c-3.1 1.5-6.2 3.3-7 7.7h7zm-20.6-33.7 1.8-1.5v-2q-.8 0-1.5 1a5 5 0 0 0-2.5-3 5 5 0 0 0-2.6 2.9q-.6-.9-1.5-1v2l1.8 1.6z"/>
      <path d="m123.8 600.2.8-1.9v-2.5q-.8 0-1.5 1a5 5 0 0 0-2.5-3 5 5 0 0 0-2.6 2.9q-.6-.9-1.5-.9v2.5l.8 1.9z"/>
      <path d="m124 606.8 2.6-3.3v-3.2q-1.3 0-2.2 1.6c-.7-2.3-2-2.7-3.8-3.8-1.9 1-3.2 1.5-3.8 3.7-.8-1.1-1.3-1.4-2.3-1.5v3.2l2.7 3.3z"/>
      <path d="M124.7 613.3s3.2-2.7 3.3-4.2v-3.5c-1.2.1-2.3.4-3.2 1.9-.8-2.9-2-3.7-4.2-5-2.3 1.3-3.5 2.1-4.2 5-1-1.5-2-1.8-3.3-2v3.6a15 15 0 0 0 3.3 4.2z"/>
      <path d="M126 625.3s4.4-4.7 4.5-6.6v-5.4q-2.5.2-4.4 3.6-1.3-6.6-5.5-9.8c-3 2.2-4.6 5.3-5.6 9.8q-1.9-3.4-4.3-3.6v5.4c.3 1.9 4.4 6.6 4.4 6.6z"/>
      <path d="M126 632.4s3.7-3.7 4.5-5.3v-5.4q-2.5.3-4.4 3.5a14 14 0 0 0-5.5-9.2c-3 2.2-4.6 4.7-5.6 9.2q-1.9-3.2-4.3-3.5v5.4c1 1.6 4.4 5.3 4.4 5.3z"/>
      <path d="M127.5 636.6c-1-4.7-2-8.2-7.1-11.7-5.2 3.5-6.1 7-7.2 11.7z"/>
      <path d="M130.2 639.2v-6.8c-2.4 1-4.5 2.3-5.3 3.8-.8-3.8-2.5-5.4-4.6-7.7-2.1 2.3-3.5 4-4.4 7.7-.8-1.5-2.9-2.9-5.2-3.8v6.8z"/>
    </g>
    <use xlink:href="#kh-a" width="100%" height="100%" transform="matrix(-1 0 0 1 390.7 0)"/>
    <path d="M72.7 694.3H318v12.5H72.7zm-6.5 12.5h258.3v12.5H66.2zm19.4-31.3H305v8.1H85.6z"/>
    <path d="M79.2 683.6h232.4v10.6H79.2zm10.2-14.3h212v6.2h-212z"/>
    <path d="M112.4 669.3h16v50h-16z"/>
    <path d="M116 669.3h8.9v50h-9zm71 0h16v50h-16z"/>
    <path d="M190.7 669.3h9v50h-9zm71.5 0h16v50h-16z"/>
    <path d="M265.7 669.3h9v50h-9z"/>
    <path fill="none" d="M99 664.2h193M115.8 713h9.2m-9.2-6.3h9.2m-9.2-6.2h9.2m-9.2-6.3h9.2m-9.2-6.2h9.2m-9.2-6.3h9.2m-9.2-6.2h9.2m65.8 37.5h8.6m-8.6-6.3h8.6m-8.6-6.2h8.6m-8.6-6.3h8.6m-8.6-6.2h8.6m-8.6-6.3h8.6m-8.6-6.2h8.6m66.2 37.5h9.2m-9.2-6.3h9.2m-9.2-6.2h9.2m-9.2-6.3h9.2m-9.2-6.2h9.2m-9.2-6.3h9.2m-9.2-6.2h9.2"/>
  </g>
</svg></g><rect width="2.84375" height="27" transform="translate(151.5625, 897)" fill="rgb(255,160,37)" style="fill: rgb(255, 160, 37);"/><text transform="translate(159.40625, 903)"><tspan fill="rgb(255,255,255)" x="0" y="12" style="font-family: Roboto; font-weight: 700; font-stretch: 100%; font-size: 12px;">1</tspan></text><text transform="translate(13, 934.296875)"><tspan fill="rgb(255,255,255)" x="20.184375" y="12" style="font-family: Roboto; font-weight: 400; font-stretch: 100%; font-size: 12px;">Sweden</tspan></text><g id="image"><svg xmlns="http://www.w3.org/2000/svg" id="flag-icons-se" viewBox="0 0 640 480" width="16" height="12" x="13" y="934">
  <path fill="#005293" d="M0 0h640v480H0z"/>
  <path fill="#fecb00" d="M176 0v192H0v96h176v192h96V288h368v-96H272V0z"/>
</svg></g><rect width="2.84375" height="27" transform="translate(151.5625, 928)" fill="rgb(255,160,37)" style="fill: rgb(255, 160, 37);"/><text transform="translate(159.40625, 934)"><tspan fill="rgb(255,255,255)" x="0" y="12" style="font-family: Roboto; font-weight: 700; font-stretch: 100%; font-size: 12px;">1</tspan></text><text transform="translate(13, 965.296875)"><tspan fill="rgb(255,255,255)" x="20.184375" y="12" style="font-family: Roboto; font-weight: 400; font-stretch: 100%; font-size: 12px;">Russia</tspan></text><g id="image"><svg xmlns="http://www.w3.org/2000/svg" id="flag-icons-ru" viewBox="0 0 640 480" width="16" height="12" x="13" y="965">
  <path fill="#fff" d="M0 0h640v160H0z"/>
  <path fill="#0039a6" d="M0 160h640v160H0z"/>
  <path fill="#d52b1e" d="M0 320h640v160H0z"/>
</svg></g><rect width="2.84375" height="27" transform="translate(151.5625, 959)" fill="rgb(255,160,37)" style="fill: rgb(255, 160, 37);"/><text transform="translate(159.40625, 965)"><tspan fill="rgb(255,255,255)" x="0" y="12" style="font-family: Roboto; font-weight: 700; font-stretch: 100%; font-size: 12px;">1</tspan></text><text transform="translate(13, 996.296875)"><tspan fill="rgb(255,255,255)" x="20.184375" y="12" style="font-family: Roboto; font-weight: 400; font-stretch: 100%; font-size: 12px;">France</tspan></text><g id="image"><svg xmlns="http://www.w3.org/2000/svg" id="flag-icons-fr" viewBox="0 0 640 480" width="16" height="12" x="13" y="996">
  <path fill="#fff" d="M0 0h640v480H0z"/>
  <path fill="#000091" d="M0 0h213.3v480H0z"/>
  <path fill="#e1000f" d="M426.7 0H640v480H426.7z"/>
</svg></g><rect width="2.84375" height="27" transform="translate(151.5625, 990)" fill="rgb(255,160,37)" style="fill: rgb(255, 160, 37);"/><text transform="translate(159.40625, 996)"><tspan fill="rgb(255,255,255)" x="0" y="12" style="font-family: Roboto; font-weight: 700; font-stretch: 100%; font-size: 12px;">1</tspan></text><text transform="translate(13, 1027.296875)"><tspan fill="rgb(255,255,255)" x="20.184375" y="12" style="font-family: Roboto; font-weight: 400; font-stretch: 100%; font-size: 12px;">Finland</tspan></text><g id="image"><svg xmlns="http://www.w3.org/2000/svg" id="flag-icons-fi" viewBox="0 0 640 480" width="16" height="12" x="13" y="1027">
  <path fill="#fff" d="M0 0h640v480H0z"/>
  <path fill="#002f6c" d="M0 174.5h640v131H0z"/>
  <path fill="#002f6c" d="M175.5 0h130.9v480h-131z"/>
</svg></g><rect width="2.84375" height="27" transform="translate(151.5625, 1021)" fill="rgb(255,160,37)" style="fill: rgb(255, 160, 37);"/><text transform="translate(159.40625, 1027)"><tspan fill="rgb(255,255,255)" x="0" y="12" style="font-family: Roboto; font-weight: 700; font-stretch: 100%; font-size: 12px;">1</tspan></text><text transform="translate(13, 1058.296875)"><tspan fill="rgb(255,255,255)" x="20.184375" y="12" style="font-family: Roboto; font-weight: 400; font-stretch: 100%; font-size: 12px;">Italy</tspan></text><g id="image"><svg xmlns="http://www.w3.org/2000/svg" id="flag-icons-it" viewBox="0 0 640 480" width="16" height="12" x="13" y="1058">
  <g fill-rule="evenodd" stroke-width="1pt">
    <path fill="#fff" d="M0 0h640v480H0z"/>
    <path fill="#009246" d="M0 0h213.3v480H0z"/>
    <path fill="#ce2b37" d="M426.7 0H640v480H426.7z"/>
  </g>
</svg></g><rect width="2.84375" height="27" transform="translate(151.5625, 1052)" fill="rgb(255,160,37)" style="fill: rgb(255, 160, 37);"/><text transform="translate(159.40625, 1058)"><tspan fill="rgb(255,255,255)" x="0" y="12" style="font-family: Roboto; font-weight: 700; font-stretch: 100%; font-size: 12px;">1</tspan></text><text transform="translate(13, 1089.296875)"><tspan fill="rgb(255,255,255)" x="20.184375" y="12" style="font-family: Roboto; font-weight: 400; font-stretch: 100%; font-size: 12px;">Japan</tspan></text><g id="image"><svg xmlns="http://www.w3.org/2000/svg" id="flag-icons-jp" viewBox="0 0 640 480" width="16" height="12" x="13" y="1089">
  <defs>
    <clipPath id="jp-a">
      <path fill-opacity=".7" d="M-88 32h640v480H-88z"/>
    </clipPath>
  </defs>
  <g fill-rule="evenodd" stroke-width="1pt" clip-path="url(#jp-a)" transform="translate(88 -32)">
    <path fill="#fff" d="M-128 32h720v480h-720z"/>
    <circle cx="523.1" cy="344.1" r="194.9" fill="#bc002d" transform="translate(-168.4 8.6)scale(.76554)"/>
  </g>
</svg></g><rect width="2.84375" height="27" transform="translate(151.5625, 1083)" fill="rgb(255,160,37)" style="fill: rgb(255, 160, 37);"/><text transform="translate(159.40625, 1089)"><tspan fill="rgb(255,255,255)" x="0" y="12" style="font-family: Roboto; font-weight: 700; font-stretch: 100%; font-size: 12px;">1</tspan></text><text transform="translate(13, 1120.296875)"><tspan fill="rgb(255,255,255)" x="20.184375" y="12" style="font-family: Roboto; font-weight: 400; font-stretch: 100%; font-size: 12px;">Uganda</tspan></text><g id="image"><svg xmlns="http://www.w3.org/2000/svg" id="flag-icons-ug" viewBox="0 0 640 480" width="16" height="12" x="13" y="1120">
  <defs>
    <clipPath id="ug-a">
      <path fill-opacity=".7" d="M-85.3 0h682.6v512H-85.3z"/>
    </clipPath>
  </defs>
  <g clip-path="url(#ug-a)" transform="translate(80)scale(.9375)">
    <path fill="#ffe700" fill-rule="evenodd" d="M-128 341.4h768v85.3h-768z"/>
    <path fill="#000001" fill-rule="evenodd" d="M-128 256h768v85.3h-768z"/>
    <path fill="#de3908" fill-rule="evenodd" d="M-128 170.7h768V256h-768z"/>
    <path fill="#ffe700" fill-rule="evenodd" d="M-128 85.4h768v85.3h-768z"/>
    <path fill="#000001" fill-rule="evenodd" d="M-128 0h768v85.3h-768z"/>
    <path fill="#fffdff" fill-rule="evenodd" stroke="#000" d="M335.7 256a79.7 79.7 0 1 1-159.4 0 79.7 79.7 0 0 1 159.4 0z"/>
    <path fill="#de3108" fill-rule="evenodd" stroke="#000" d="m242 194.9-5.2-9.5c2-2 5.3-3.6 10.7-3.6l-.6 10.5z"/>
    <path fill="#ffe700" fill-rule="evenodd" stroke="#000" d="m247 192.3.7-10.5s10.7-.6 16.5 6.4l-5.7 8.2z"/>
    <path fill="#de3108" fill-rule="evenodd" stroke="#000" d="m258.6 196.3 5.3-8.2c3.5 3.7 5 6.3 5.5 10.3.1.1-8.3 2.1-8.3 2z"/>
    <path fill-rule="evenodd" stroke="#000" stroke-linecap="round" stroke-linejoin="round" stroke-width=".9" d="M244.6 331.1s9.9-11.3 29.1-8.9c-2.9-4.7-12.3-4.1-12.3-4.1s-2.8-22-.6-23.2 12 .1 12 .1c1.2 0 3.4-3.4 1.6-5.6s-6.8-10.5-4.7-12.2 13.4 1 13.4 1l-32-41s-3.3-15.5 3.3-23c7.9-6.5 7-13.6 6.8-13.5-1.1-7.2-12-12.3-19.4-5.7-4.3 5.2-1.4 9.2-1.4 9.2s-11.5 3.1-11.9 5.1 12.9-.3 12.9-.3l-1.3 9.1s-26 23.6-6 44l.6-.8s7 8.6 14.3 10.5c7 7 6.3 6 6.3 6s1.3 11.1 0 13.3c-1.7-.5-19.3-1.2-21.9-.2-2.4.8-11.4.3-9.2 15.1l3.3-7.5s-.3 5.3 1.9 7.2c-.4-5.6 2.1-9.4 2.1-9.4s.4 6.2 1.8 7c1.4 1 1.4-10 9-9 7.4.9 12.9.6 12.9.6s2.5 21.4 1.7 23.4c-5.4-1.3-18.4.5-19.2 3.8 7.6-.5 11.1.4 11.1.4s-6.1 5.5-4.2 8.6"/>
    <path fill="#9ca69c" fill-rule="evenodd" stroke="#9ca69c" stroke-linecap="round" stroke-linejoin="round" stroke-width=".9" d="M247.6 214.8s-18.9 20.8-10.7 36.7c.4-2.2.2-3.6.5-3.5-.5-.3 2.3 1.9 2.1 1.5 0-1.2-.8-3.7-.8-3.7l2.5.7-1.5-2.8 3.7.4s-1.3-3.4-.9-3.4l3 .2c-5.4-9.6-.3-17.6 2.1-26.2z"/>
    <path fill="#9ca69c" fill-rule="evenodd" stroke="#9ca69c" d="M254.2 196.9s1 7.2-3 9.2c-.5.5-3 1.3-2.6 2.8.4 2 1.5 1.6 3 1.2 4.1-.7 8.9-9.4 2.6-13.2z"/>
    <path fill="#fff" fill-rule="evenodd" d="M247.2 203a1.5 1.5 0 1 1-3 0 1.5 1.5 0 0 1 3 0"/>
    <path fill="#de3108" fill-rule="evenodd" stroke="#000" d="M241.1 209c-1 .9-6.2 6.3-1 8.3 5.3-1.4 3.8-2.4 5-3.6 0-2.5-2.6-3.1-4-4.6z"/>
    <path fill="#9ca69c" fill-rule="evenodd" stroke="#9ca69c" stroke-linecap="round" stroke-linejoin="round" stroke-width=".9" d="M252.6 260.5c-.3 1.2-1.5 5.6.1 9 4.6-2 6.7-1.4 8.2-.4-3.7-3-5.2-4.3-8.3-8.6"/>
    <path fill="#fff" fill-rule="evenodd" stroke="#fff" stroke-linecap="round" stroke-linejoin="round" stroke-width=".9" d="m260.4 281.1.2 10.2s3.6.6 5.2 0 0-7-5.4-10.2"/>
    <path fill="#9ca69c" fill-rule="evenodd" stroke="#000" d="M286 282.4s-6.5-15.8-23.2-19.8-14.5-21.8-13.2-22.9c.8-1.5 1.3-3.9 6.1-1.6s27 13.4 30.2 14 .4 30.7.2 30.3z"/>
    <path fill="#de3108" fill-rule="evenodd" stroke="#000" stroke-linejoin="round" stroke-width=".9" d="M270.2 262.5c-.3.2 22.3 13.4 15.5 24.7 6.4-4.3 4.4-11.7 4.4-11.7s5.2 13.7-7.6 20.4c1.4 1.2 2.3 1 2.3 1l-2.2 2.1s-1 1.7 7.6-2.5c-2.3 1.9-2.5 3.3-2.5 3.3s.6 1.8 6.2-3.1c-4.5 4.9-5.5 7.4-5.5 7.3 12.3-1 39-41-8.4-52.7l2.1 2.2z"/>
    <path fill="#fff" fill-rule="evenodd" stroke="#000" stroke-linecap="round" stroke-linejoin="round" stroke-width=".9" d="M271.2 258.6c3 2.2 4.1 3 4.5 4-2.8-.6-5.3-.4-5.3-.4s-6.1-5.8-7.2-6.3c-.8 0-5.6-3-5.6-3-2.3-1.2-4.5-9.3 4.2-7a93 93 0 0 0 10.3 4.6l10.7 3.4 6.2 6.9s-11-5.4-12.4-5.5c3 2.4 4.7 5.8 4.7 5.8-3.5-1-6.5-2-10.1-2.5"/>
    <path fill="none" stroke="#fff" stroke-linecap="round" stroke-width=".9" d="M228.4 209.9s10.5-2.6 11.8-2.2"/>
    <path fill="#de3908" fill-rule="evenodd" d="M-128 426.7h768V512h-768z"/>
  </g>
</svg></g><rect width="2.84375" height="27" transform="translate(151.5625, 1114)" fill="rgb(255,160,37)" style="fill: rgb(255, 160, 37);"/><text transform="translate(159.40625, 1120)"><tspan fill="rgb(255,255,255)" x="0" y="12" style="font-family: Roboto; font-weight: 700; font-stretch: 100%; font-size: 12px;">1</tspan></text><text transform="translate(13, 1151.296875)"><tspan fill="rgb(255,255,255)" x="19.95" y="12" style="font-family: Roboto; font-weight: 400; font-stretch: 100%; font-size: 12px;">Tanzania</tspan></text><g id="image"><svg xmlns="http://www.w3.org/2000/svg" id="flag-icons-tz" viewBox="0 0 640 480" width="16" height="12" x="13" y="1151">
  <defs>
    <clipPath id="tz-a">
      <path fill-opacity=".7" d="M10 0h160v120H10z"/>
    </clipPath>
  </defs>
  <g fill-rule="evenodd" stroke-width="1pt" clip-path="url(#tz-a)" transform="matrix(4 0 0 4 -40 0)">
    <path fill="#09f" d="M0 0h180v120H0z"/>
    <path fill="#090" d="M0 0h180L0 120z"/>
    <path fill="#000001" d="M0 120h40l140-95V0h-40L0 95z"/>
    <path fill="#ff0" d="M0 91.5 137.2 0h13.5L0 100.5zM29.3 120 180 19.5v9L42.8 120z"/>
  </g>
</svg></g><rect width="2.84375" height="27" transform="translate(151.5625, 1145)" fill="rgb(255,160,37)" style="fill: rgb(255, 160, 37);"/><text transform="translate(159.40625, 1151)"><tspan fill="rgb(255,255,255)" x="0" y="12" style="font-family: Roboto; font-weight: 700; font-stretch: 100%; font-size: 12px;">1</tspan></text><text transform="translate(13, 1182.296875)"><tspan fill="rgb(255,255,255)" x="20.184375" y="12" style="font-family: Roboto; font-weight: 400; font-stretch: 100%; font-size: 12px;">South Korea</tspan></text><g id="image"><svg xmlns="http://www.w3.org/2000/svg" xmlns:xlink="http://www.w3.org/1999/xlink" id="flag-icons-kr" viewBox="0 0 640 480" width="16" height="12" x="13" y="1182">
  <defs>
    <clipPath id="kr-a">
      <path fill-opacity=".7" d="M-95.8-.4h682.7v512H-95.8z"/>
    </clipPath>
  </defs>
  <g fill-rule="evenodd" clip-path="url(#kr-a)" transform="translate(89.8 .4)scale(.9375)">
    <path fill="#fff" d="M-95.8-.4H587v512H-95.8Z"/>
    <g transform="rotate(-56.3 361.6 -101.3)scale(10.66667)">
      <g id="kr-c">
        <path id="kr-b" fill="#000001" d="M-6-26H6v2H-6Zm0 3H6v2H-6Zm0 3H6v2H-6Z"/>
        <use xlink:href="#kr-b" width="100%" height="100%" y="44"/>
      </g>
      <path stroke="#fff" d="M0 17v10"/>
      <path fill="#cd2e3a" d="M0-12a12 12 0 0 1 0 24Z"/>
      <path fill="#0047a0" d="M0-12a12 12 0 0 0 0 24A6 6 0 0 0 0 0Z"/>
      <circle cy="-6" r="6" fill="#cd2e3a"/>
    </g>
    <g transform="rotate(-123.7 191.2 62.2)scale(10.66667)">
      <use xlink:href="#kr-c" width="100%" height="100%"/>
      <path stroke="#fff" d="M0-23.5v3M0 17v3.5m0 3v3"/>
    </g>
  </g>
</svg></g><rect width="2.84375" height="27" transform="translate(151.5625, 1176)" fill="rgb(255,160,37)" style="fill: rgb(255, 160, 37);"/><text transform="translate(159.40625, 1182)"><tspan fill="rgb(255,255,255)" x="0" y="12" style="font-family: Roboto; font-weight: 700; font-stretch: 100%; font-size: 12px;">1</tspan></text><text transform="translate(13, 1213.296875)"><tspan fill="rgb(255,255,255)" x="20.184375" y="12" style="font-family: Roboto; font-weight: 400; font-stretch: 100%; font-size: 12px;">Belgium</tspan></text><g id="image"><svg xmlns="http://www.w3.org/2000/svg" id="flag-icons-be" viewBox="0 0 640 480" width="16" height="12" x="13" y="1213">
  <g fill-rule="evenodd" stroke-width="1pt">
    <path fill="#000001" d="M0 0h213.3v480H0z"/>
    <path fill="#ffd90c" d="M213.3 0h213.4v480H213.3z"/>
    <path fill="#f31830" d="M426.7 0H640v480H426.7z"/>
  </g>
</svg></g><rect width="2.84375" height="27" transform="translate(151.5625, 1207)" fill="rgb(255,160,37)" style="fill: rgb(255, 160, 37);"/><text transform="translate(159.40625, 1213)"><tspan fill="rgb(255,255,255)" x="0" y="12" style="font-family: Roboto; font-weight: 700; font-stretch: 100%; font-size: 12px;">1</tspan></text><text transform="translate(13, 1244.296875)"><tspan fill="rgb(255,255,255)" x="20.184375" y="12" style="font-family: Roboto; font-weight: 400; font-stretch: 100%; font-size: 12px;">Liberia</tspan></text><g id="image"><svg xmlns="http://www.w3.org/2000/svg" id="flag-icons-lr" viewBox="0 0 640 480" width="16" height="12" x="13" y="1244">
  <defs>
    <clipPath id="lr-a">
      <path fill-opacity=".7" d="M0 0h682.7v512H0z"/>
    </clipPath>
  </defs>
  <g fill-rule="evenodd" clip-path="url(#lr-a)" transform="scale(.9375)">
    <path fill="#fff" d="M0 0h767.9v512H0z"/>
    <path fill="#006" d="M0 0h232.7v232.8H0z"/>
    <path fill="#c00" d="M0 464.9h767.9V512H0z"/>
    <path fill="#c00" d="M0 465.4h767.9V512H0zm0-92.9h767.9v46.2H0zm0-93.2h766V326H0zM232.7 0h535.1v46.5H232.7zm0 186h535.1v46.8H232.7zm0-92.7h535.1v46.5H232.7z"/>
    <path fill="#fff" d="m166.3 177.5-50.7-31-50.4 31.3 18.7-50.9-50.3-31.4 62.3-.4 19.3-50.7L135 95h62.3l-50.1 31.7z"/>
  </g>
</svg></g><rect width="2.84375" height="27" transform="translate(151.5625, 1238)" fill="rgb(255,160,37)" style="fill: rgb(255, 160, 37);"/><text transform="translate(159.40625, 1244)"><tspan fill="rgb(255,255,255)" x="0" y="12" style="font-family: Roboto; font-weight: 700; font-stretch: 100%; font-size: 12px;">1</tspan></text><text transform="translate(13, 1275.296875)"><tspan fill="rgb(255,255,255)" x="20.184375" y="12" style="font-family: Roboto; font-weight: 400; font-stretch: 100%; font-size: 12px;">Singapore</tspan></text><g id="image"><svg xmlns="http://www.w3.org/2000/svg" id="flag-icons-sg" viewBox="0 0 640 480" width="16" height="12" x="13" y="1275">
  <defs>
    <clipPath id="sg-a">
      <path fill-opacity=".7" d="M0 0h640v480H0z"/>
    </clipPath>
  </defs>
  <g fill-rule="evenodd" clip-path="url(#sg-a)">
    <path fill="#fff" d="M-20 0h720v480H-20z"/>
    <path fill="#df0000" d="M-20 0h720v240H-20z"/>
    <path fill="#fff" d="M146 40.2a84.4 84.4 0 0 0 .8 165.2 86 86 0 0 1-106.6-59 86 86 0 0 1 59-106c16-4.6 30.8-4.7 46.9-.2z"/>
    <path fill="#fff" d="m133 110 4.9 15-13-9.2-12.8 9.4 4.7-15.2-12.8-9.3 15.9-.2 5-15 5 15h15.8zm17.5 52 5 15.1-13-9.2-12.9 9.3 4.8-15.1-12.8-9.4 15.9-.1 4.9-15.1 5 15h16zm58.5-.4 4.9 15.2-13-9.3-12.8 9.3 4.7-15.1-12.8-9.3 15.9-.2 5-15 5 15h15.8zm17.4-51.6 4.9 15.1-13-9.2-12.8 9.3 4.8-15.1-12.9-9.4 16-.1 4.8-15.1 5 15h16zm-46.3-34.3 5 15.2-13-9.3-12.9 9.4 4.8-15.2-12.8-9.4 15.8-.1 5-15.1 5 15h16z"/>
  </g>
</svg></g><rect width="2.84375" height="27" transform="translate(151.5625, 1269)" fill="rgb(255,160,37)" style="fill: rgb(255, 160, 37);"/><text transform="translate(159.40625, 1275)"><tspan fill="rgb(255,255,255)" x="0" y="12" style="font-family: Roboto; font-weight: 700; font-stretch: 100%; font-size: 12px;">1</tspan></text></g></g></g><g id="container-svg container-footer-svg datawrapper-ps8J7-1la8dcw-svg"><text transform="translate(12, 1316)"><tspan fill="rgb(204,204,204)" x="0" y="16" style="font-family: Roboto; font-weight: 400; font-stretch: 100%; font-size: 11px;">Created with</tspan><tspan fill="rgb(204,204,204)" dx="2.734375" style="font-family: Roboto; font-weight: 400; font-stretch: 100%; font-size: 11px;">Datawrapper</tspan></text></g></g></g></g></g></svg>